<svg width="100" height="100" viewBox="0 0 100 100" fill="none" xmlns="http://www.w3.org/2000/svg">
<path d="M50 0C40.1109 0 30.444 2.93245 22.2215 8.42652C13.9991 13.9206 7.59043 21.7295 3.80605 30.8658C0.0216641 40.0021 -0.968502 50.0555 0.960758 59.7545C2.89002 69.4535 7.65206 78.3627 14.6447 85.3553C21.6373 92.3479 30.5464 97.11 40.2455 99.0392C49.9445 100.968 59.9979 99.9783 69.1342 96.1939C78.2705 92.4096 86.0794 86.0009 91.5735 77.7785C97.0676 69.556 100 59.889 100 50C100 36.7392 94.7322 24.0215 85.3553 14.6447C75.9785 5.26784 63.2608 0 50 0V0ZM35.4605 76.3158H24.5526V41.1776H35.4605V76.3158ZM30 36.3816C28.7447 36.3868 27.5159 36.0197 26.4692 35.3267C25.4224 34.6337 24.6046 33.6459 24.1191 32.4882C23.6336 31.3306 23.5022 30.0549 23.7415 28.8226C23.9809 27.5902 24.5802 26.4565 25.4637 25.5647C26.3472 24.6729 27.4753 24.0631 28.7054 23.8123C29.9354 23.5614 31.2122 23.6809 32.3744 24.1556C33.5366 24.6303 34.5319 25.4389 35.2346 26.4791C35.9373 27.5194 36.3159 28.7446 36.3224 30C36.3259 31.6833 35.6628 33.2996 34.4781 34.4954C33.2933 35.6913 31.6833 36.3694 30 36.3816ZM76.3158 76.3158H65.4145V59.2105C65.4145 55.1316 65.3355 49.9013 59.7434 49.9013C54.1513 49.9013 53.1645 54.3355 53.1645 58.9145V76.3158H42.3026V41.1776H52.7697V45.9671H52.9211C54.375 43.2039 57.9342 40.2895 63.2434 40.2895C74.2829 40.2895 76.3158 47.5658 76.3158 57.0131V76.3158Z" fill="#0376A8"/>
</svg>
