<svg width="69" height="69" viewBox="0 0 69 69" fill="none" xmlns="http://www.w3.org/2000/svg">
<path d="M55.9211 21.4771L48.6071 14.1632C48.4565 14.0112 48.2664 13.9043 48.0582 13.8545C47.8501 13.8047 47.6322 13.814 47.4291 13.8813C47.2259 13.9486 47.0456 14.0712 46.9083 14.2354C46.7711 14.3995 46.6824 14.5988 46.6521 14.8106C46.5312 15.6562 46.1772 16.4514 45.6298 17.1072C45.0824 17.763 44.3632 18.2534 43.5528 18.5234C42.7424 18.7935 41.8728 18.8326 41.0414 18.6363C40.2101 18.44 39.4498 18.0161 38.8458 17.4121C38.2418 16.808 37.8179 16.0478 37.6216 15.2164C37.4253 14.385 37.4644 13.5155 37.7344 12.7051C38.0045 11.8947 38.4949 11.1755 39.1506 10.628C39.8064 10.0806 40.6016 9.72664 41.4473 9.6057C41.6591 9.57549 41.8583 9.48676 42.0225 9.34951C42.1867 9.21225 42.3093 9.03191 42.3766 8.82876C42.4439 8.62562 42.4531 8.40773 42.4033 8.19961C42.3535 7.99149 42.2466 7.80139 42.0947 7.6507L34.7807 0.336704C34.565 0.121113 34.2726 0 33.9677 0C33.6627 0 33.3703 0.121113 33.1546 0.336704L26.8032 6.68585C26.4904 5.51537 25.875 4.44786 25.0188 3.59068C24.1626 2.7335 23.0958 2.11687 21.9257 1.8028C20.7556 1.48873 19.5234 1.48829 18.353 1.80153C17.1827 2.11477 16.1154 2.73065 15.2586 3.58722C14.4018 4.44379 13.7856 5.51087 13.4721 6.68113C13.1585 7.85139 13.1586 9.08359 13.4724 10.2538C13.7861 11.424 14.4025 12.491 15.2594 13.3474C16.1164 14.2039 17.1837 14.8196 18.3541 15.1326L12.0096 21.4771C11.794 21.6928 11.6729 21.9853 11.6729 22.2902C11.6729 22.5951 11.794 22.8876 12.0096 23.1032L18.3564 29.4581C16.9631 29.8324 15.7222 30.634 14.8082 31.7501C13.8941 32.8663 13.3529 34.2409 13.2606 35.6806C13.1684 37.1203 13.5297 38.5527 14.2938 39.7764C15.0578 41.0001 16.1863 41.9535 17.5204 42.5026L14.8351 50.2478C14.4784 51.0515 14.3107 51.9263 14.345 52.8049C14.3793 53.6835 14.6146 54.5425 15.0329 55.3159L19.0694 64.8609C19.0843 64.8976 19.1016 64.9333 19.1212 64.9678C19.4039 65.4859 19.5514 66.067 19.5501 66.6572V67.7612C19.5501 68.0662 19.6713 68.3587 19.8869 68.5744C20.1026 68.79 20.3951 68.9112 20.7001 68.9112C21.0051 68.9112 21.2976 68.79 21.5133 68.5744C21.7289 68.3587 21.8501 68.0662 21.8501 67.7612V66.6572C21.8489 65.7005 21.6119 64.7589 21.1601 63.9156L17.1225 54.3706C17.1064 54.3312 17.088 54.2928 17.0673 54.2556C16.8037 53.7745 16.6572 53.2381 16.6396 52.6899C16.622 52.1416 16.7339 51.597 16.9661 51.1L19.779 43.004C19.8997 43.004 20.0182 43.0212 20.1401 43.0212C21.6579 43.0226 23.1336 42.5225 24.3379 41.5987C25.5422 40.675 26.4076 39.3792 26.7997 37.9129L28.7501 39.8553V51.6612C28.7501 51.9662 28.8713 52.2587 29.0869 52.4744C29.3026 52.69 29.5951 52.8112 29.9001 52.8112C30.2051 52.8112 30.4976 52.69 30.7133 52.4744C30.9289 52.2587 31.0501 51.9662 31.0501 51.6612V35.5612C31.0501 34.6462 31.4136 33.7687 32.0606 33.1217C32.7076 32.4747 33.5851 32.1112 34.5001 32.1112C35.4151 32.1112 36.2926 32.4747 36.9396 33.1217C37.5866 33.7687 37.9501 34.6462 37.9501 35.5612V49.4888C37.9521 51.0954 38.3261 52.6797 39.0426 54.1176L39.4635 54.9617C40.02 56.08 40.3096 57.3121 40.3096 58.5612C40.3096 59.8103 40.02 61.0424 39.4635 62.1607L38.3135 64.4607C38.0748 64.9401 37.9504 65.4684 37.9501 66.004V67.7612C37.9501 68.0662 38.0713 68.3587 38.2869 68.5744C38.5026 68.79 38.7951 68.9112 39.1001 68.9112C39.4051 68.9112 39.6976 68.79 39.9133 68.5744C40.1289 68.3587 40.2501 68.0662 40.2501 67.7612V66.004C40.2489 65.8261 40.2882 65.6503 40.3651 65.4899L41.5151 63.1899C42.2304 61.752 42.6027 60.1678 42.6027 58.5618C42.6027 56.9557 42.2304 55.3715 41.5151 53.9336L41.0942 53.0895C40.6819 52.2614 40.4147 51.3687 40.3042 50.4502C41.0511 51.1998 41.9388 51.7943 42.9164 52.1995C43.8939 52.6047 44.9419 52.8126 46.0001 52.8112C46.9151 52.8112 47.7926 52.4477 48.4396 51.8007C49.0866 51.1537 49.4501 50.2762 49.4501 49.3612V42.8062C50.9344 42.4389 52.2544 41.5886 53.2025 40.389C54.1506 39.1894 54.6729 37.7086 54.6872 36.1796C54.7016 34.6506 54.2072 33.1603 53.2818 31.9431C52.3564 30.7259 51.0526 29.8509 49.5754 29.4558L55.9211 23.101C56.136 22.8854 56.2567 22.5934 56.2567 22.289C56.2567 21.9847 56.136 21.6927 55.9211 21.4771ZM46.0001 50.5112C44.4757 50.5094 43.0142 49.903 41.9363 48.825C40.8583 47.7471 40.2519 46.2856 40.2501 44.7612V38.7812L41.1287 37.9026C41.4911 39.2645 42.263 40.4822 43.3398 41.3913C44.4167 42.3003 45.7467 42.8568 47.1501 42.9856V49.3612C47.1501 49.6662 47.0289 49.9587 46.8133 50.1744C46.5976 50.39 46.3051 50.5112 46.0001 50.5112ZM46.1646 29.6191C45.992 29.7898 45.8778 30.0106 45.8383 30.25C45.7989 30.4895 45.8362 30.7353 45.9449 30.9522C46.0537 31.1692 46.2282 31.3462 46.4437 31.4579C46.6591 31.5696 46.9044 31.6103 47.1443 31.5741C48.0998 31.4389 49.0735 31.6076 49.9278 32.0563C50.7821 32.5049 51.4737 33.2109 51.9047 34.0743C52.3356 34.9376 52.4842 35.9146 52.3293 36.8671C52.1744 37.8195 51.724 38.6991 51.0416 39.3814C50.3593 40.0638 49.4797 40.5142 48.5273 40.6691C47.5748 40.824 46.5978 40.6754 45.7345 40.2445C44.8711 39.8135 44.1651 39.1219 43.7165 38.2676C43.2678 37.4133 43.0991 36.4396 43.2344 35.4841C43.2705 35.2442 43.2298 34.9989 43.1181 34.7835C43.0064 34.568 42.8294 34.3935 42.6124 34.2847C42.3955 34.176 42.1497 34.1387 41.9102 34.1781C41.6708 34.2176 41.45 34.3318 41.2794 34.5043L40.2501 35.5359C40.2484 34.7808 40.0981 34.0334 39.8076 33.3364C39.5171 32.6394 39.0921 32.0065 38.557 31.4737C38.0219 30.941 37.3871 30.5188 36.6888 30.2314C35.9906 29.944 35.2426 29.7969 34.4875 29.7985C33.7324 29.8002 32.985 29.9506 32.288 30.2411C31.591 30.5316 30.9581 30.9565 30.4253 31.4916C29.3493 32.5723 28.7467 34.0362 28.7501 35.5612V36.6031L26.6422 34.4951C26.4715 34.3226 26.2507 34.2084 26.0113 34.1689C25.7718 34.1295 25.526 34.1668 25.3091 34.2755C25.0921 34.3843 24.9151 34.5588 24.8034 34.7743C24.6917 34.9897 24.651 35.235 24.6872 35.4749C24.8224 36.4304 24.6537 37.4041 24.205 38.2584C23.7564 39.1127 23.0504 39.8043 22.187 40.2353C21.3237 40.6662 20.3467 40.8148 19.3942 40.6599C18.4418 40.505 17.5622 40.0546 16.8799 39.3722C16.1975 38.6899 15.7471 37.8103 15.5922 36.8579C15.4373 35.9054 15.5859 34.9284 16.0168 34.0651C16.4478 33.2017 17.1394 32.4957 17.9937 32.0471C18.848 31.5984 19.8217 31.4297 20.7772 31.5649C21.0172 31.6014 21.2627 31.5609 21.4783 31.4493C21.694 31.3378 21.8688 31.1608 21.9777 30.9437C22.0866 30.7267 22.124 30.4808 22.0845 30.2412C22.0451 30.0016 21.9308 29.7806 21.7581 29.6099L14.4476 22.2902L21.7662 14.9762C21.9387 14.8056 22.0529 14.5848 22.0924 14.3453C22.1318 14.1059 22.0945 13.8601 21.9858 13.6431C21.877 13.4262 21.7025 13.2492 21.487 13.1374C21.2716 13.0257 21.0263 12.9851 20.7864 13.0212C19.8322 13.1546 18.8602 12.985 18.0076 12.5363C17.155 12.0877 16.4648 11.3827 16.0343 10.5207C15.6039 9.65879 15.4549 8.68345 15.6084 7.73232C15.762 6.78119 16.2103 5.90229 16.8902 5.2196C17.7669 4.38436 18.9314 3.91846 20.1424 3.91846C21.3533 3.91846 22.5178 4.38436 23.3946 5.2196C23.8978 5.72418 24.2769 6.33877 24.5021 7.01492C24.7272 7.69106 24.7921 8.41027 24.6918 9.1158C24.6556 9.35577 24.6963 9.60103 24.808 9.81647C24.9197 10.0319 25.0967 10.2065 25.3137 10.3152C25.5306 10.424 25.7764 10.4613 26.0159 10.4218C26.2553 10.3824 26.4761 10.2682 26.6468 10.0956L33.9711 2.7793L39.1243 7.9336C38.1282 8.40933 37.2607 9.1171 36.5948 9.99749C35.9289 10.8779 35.4839 11.9052 35.2973 12.9931C35.1106 14.0811 35.1877 15.198 35.5221 16.25C35.8564 17.302 36.4383 18.2584 37.2189 19.039C37.9994 19.8195 38.9558 20.4014 40.0079 20.7358C41.0599 21.0702 42.1767 21.1472 43.2647 20.9606C44.3527 20.7739 45.38 20.3289 46.2604 19.663C47.1408 18.9971 47.8485 18.1297 48.3242 17.1336L53.4785 22.2868L46.1646 29.6191Z" fill="#EA4335"/>
<path d="M67.8498 24.0612H60.9498C60.6448 24.0612 60.3523 23.9401 60.1366 23.7244C59.921 23.5087 59.7998 23.2162 59.7998 22.9112C59.7998 22.6062 59.921 22.3137 60.1366 22.0981C60.3523 21.8824 60.6448 21.7612 60.9498 21.7612H67.8498C68.1548 21.7612 68.4473 21.8824 68.663 22.0981C68.8786 22.3137 68.9998 22.6062 68.9998 22.9112C68.9998 23.2162 68.8786 23.5087 68.663 23.7244C68.4473 23.9401 68.1548 24.0612 67.8498 24.0612Z" fill="#EA4335"/>
<path d="M59.7066 10.8363C59.4534 10.8363 59.2074 10.7527 59.0065 10.5986C58.8057 10.4445 58.6613 10.2284 58.5958 9.98392C58.5303 9.7394 58.5473 9.4801 58.6442 9.24622C58.741 9.01234 58.9124 8.81696 59.1316 8.69038L65.1116 5.24038C65.3756 5.09028 65.6882 5.0507 65.9813 5.13027C66.2744 5.20983 66.5241 5.40209 66.6759 5.66508C66.8277 5.92807 66.8694 6.24044 66.7918 6.53403C66.7142 6.82762 66.5236 7.07859 66.2616 7.23218L60.2816 10.6822C60.1069 10.7835 59.9085 10.8367 59.7066 10.8363Z" fill="#EA4335"/>
<path d="M65.6815 40.7362C65.4796 40.7367 65.2812 40.6835 65.1065 40.5821L59.1265 37.1321C58.9947 37.0572 58.879 36.9569 58.7861 36.837C58.6931 36.7172 58.6248 36.5801 58.5851 36.4337C58.5454 36.2874 58.535 36.1346 58.5545 35.9842C58.5741 35.8338 58.6232 35.6888 58.699 35.5574C58.7748 35.4261 58.8759 35.311 58.9964 35.2189C59.1168 35.1268 59.2544 35.0594 59.401 35.0206C59.5476 34.9819 59.7004 34.9725 59.8507 34.993C60.001 35.0136 60.1457 35.0636 60.2765 35.1403L66.2565 38.5903C66.4757 38.7169 66.6471 38.9123 66.7439 39.1462C66.8408 39.3801 66.8578 39.6394 66.7923 39.8839C66.7268 40.1284 66.5824 40.3445 66.3816 40.4986C66.1807 40.6527 65.9347 40.7362 65.6815 40.7362Z" fill="#EA4335"/>
<path d="M8.05 24.0612H1.15C0.845001 24.0612 0.552494 23.9401 0.336827 23.7244C0.12116 23.5087 0 23.2162 0 22.9112C0 22.6062 0.12116 22.3137 0.336827 22.0981C0.552494 21.8824 0.845001 21.7612 1.15 21.7612H8.05C8.355 21.7612 8.6475 21.8824 8.86317 22.0981C9.07884 22.3137 9.2 22.6062 9.2 22.9112C9.2 23.2162 9.07884 23.5087 8.86317 23.7244C8.6475 23.9401 8.355 24.0612 8.05 24.0612Z" fill="#EA4335"/>
<path d="M9.29332 10.8363C9.09139 10.8367 8.89297 10.7835 8.71832 10.6822L2.73832 7.23218C2.47634 7.07859 2.28575 6.82762 2.20813 6.53403C2.1305 6.24044 2.17216 5.92807 2.324 5.66508C2.47584 5.40209 2.72555 5.20983 3.01861 5.13027C3.31168 5.0507 3.62433 5.09028 3.88832 5.24038L9.86832 8.69038C10.0875 8.81696 10.2589 9.01234 10.3557 9.24622C10.4526 9.4801 10.4696 9.7394 10.4041 9.98392C10.3386 10.2284 10.1942 10.4445 9.99336 10.5986C9.79253 10.7527 9.54646 10.8363 9.29332 10.8363Z" fill="#EA4335"/>
<path d="M3.31889 40.7362C3.06575 40.7362 2.81968 40.6527 2.61885 40.4986C2.41802 40.3445 2.27365 40.1284 2.20813 39.8839C2.14261 39.6394 2.1596 39.3801 2.25647 39.1462C2.35334 38.9123 2.52467 38.7169 2.7439 38.5903L8.72389 35.1403C8.85473 35.0636 8.99945 35.0136 9.14971 34.993C9.29997 34.9725 9.45282 34.9819 9.59944 35.0206C9.74607 35.0594 9.88357 35.1268 10.004 35.2189C10.1245 35.311 10.2256 35.4261 10.3014 35.5574C10.3773 35.6888 10.4264 35.8338 10.4459 35.9842C10.4655 36.1346 10.4551 36.2874 10.4153 36.4337C10.3756 36.5801 10.3073 36.7172 10.2144 36.837C10.1214 36.9569 10.0057 37.0572 9.87389 37.1321L3.89389 40.5821C3.71924 40.6835 3.52082 40.7367 3.31889 40.7362Z" fill="#EA4335"/>
</svg>
