<svg width="83" height="61" viewBox="0 0 83 61" fill="none" xmlns="http://www.w3.org/2000/svg">
<path d="M22.8268 57.7607C22.6349 57.7667 22.4417 57.7696 22.2485 57.7696C11.7618 57.7697 3.23028 49.2381 3.23028 38.7515C3.23028 28.2649 11.7618 19.7332 22.2485 19.7332C22.4417 19.7332 22.635 19.7363 22.8268 19.7421C23.7173 19.7713 24.4635 19.0694 24.4912 18.1778C24.5188 17.2863 23.8184 16.541 22.9269 16.5134C22.7019 16.5065 22.4751 16.5029 22.2485 16.5029C9.98059 16.5029 0 26.4835 0 38.7515C0 51.0194 9.98059 61 22.2485 61C22.4751 61 22.7021 60.9966 22.9269 60.9895C23.8186 60.9619 24.5188 60.2167 24.4912 59.3251C24.4635 58.4332 23.7154 57.7314 22.8268 57.7607Z" fill="#EA4335"/>
<path d="M42.5764 57.6507C41.8705 57.7298 41.1479 57.7699 40.4287 57.7699C29.9419 57.7699 21.4105 49.2384 21.4105 38.7516C21.4105 28.2649 29.9419 19.7334 40.4287 19.7334C41.1481 19.7334 41.8707 19.7736 42.5762 19.8526C43.4637 19.9509 44.2619 19.3139 44.3612 18.4274C44.4606 17.5408 43.8226 16.7416 42.9361 16.6423C42.1115 16.5498 41.2678 16.5029 40.4287 16.5029C28.1608 16.5029 18.1802 26.4835 18.1802 38.7515C18.1802 51.0194 28.1608 61 40.4287 61C41.2676 61 42.1112 60.9532 42.9359 60.8608C43.8223 60.7614 44.4604 59.9624 44.3612 59.0759C44.2618 58.1895 43.4627 57.5518 42.5764 57.6507Z" fill="#EA4335"/>
<path d="M80.4026 44.257C79.5639 43.9535 78.6378 44.387 78.3341 45.2259C75.6178 52.7286 68.4296 57.7692 60.4473 57.7692C49.9608 57.7692 41.4295 49.2379 41.4295 38.7515C41.4295 28.265 49.9608 19.7337 60.4473 19.7337C68.4383 19.7337 75.6291 24.7818 78.3406 32.2953C78.6434 33.1343 79.5694 33.569 80.4081 33.2663C81.2472 32.9635 81.6818 32.0378 81.3791 31.1988C78.207 22.409 69.7952 16.5034 60.4473 16.5034C48.1796 16.5034 38.1992 26.4838 38.1992 38.7515C38.1992 51.0191 48.1796 60.9995 60.4473 60.9995C69.7849 60.9995 78.1938 55.1025 81.3715 46.3255C81.6752 45.4868 81.2414 44.5606 80.4026 44.257Z" fill="#EA4335"/>
<path d="M9.24014 8.571H70.115L67.567 11.1647C66.9419 11.8011 66.951 12.8237 67.5873 13.4489C68.2151 14.0655 69.2548 14.0562 69.8715 13.4285L75.1179 8.08775C75.7343 7.46026 75.7249 6.41931 75.0979 5.8041L69.6649 0.463322C69.0289 -0.16206 68.0063 -0.153176 67.3808 0.482866C66.7554 1.11891 66.7643 2.14161 67.4003 2.76699L70.0186 5.34088H9.24014C8.3481 5.34088 7.625 6.06398 7.625 6.95602C7.625 7.84806 8.3481 8.571 9.24014 8.571Z" fill="#EA4335"/>
<path d="M82.6626 38.4351C82.5337 37.7592 81.9555 37.2333 81.277 37.1485C80.6026 37.0642 79.9321 37.4292 79.6325 38.0381C78.9975 39.3289 80.3222 40.7785 81.6647 40.2555C82.3855 39.9748 82.8145 39.1952 82.6626 38.4351Z" fill="#EA4335"/>
</svg>
