<svg width="133" height="133" viewBox="0 0 133 133" fill="none" xmlns="http://www.w3.org/2000/svg">
<path d="M66.2627 80.63C73.9349 80.63 80.1544 74.4105 80.1544 66.7383C80.1544 59.0662 73.9349 52.8467 66.2627 52.8467C58.5906 52.8467 52.3711 59.0662 52.3711 66.7383C52.3711 74.4105 58.5906 80.63 66.2627 80.63Z" fill="white"/>
<path d="M66.263 0.587616C29.729 0.587616 0.112305 30.2043 0.112305 66.7383C0.112305 103.272 29.729 132.889 66.263 132.889C102.797 132.889 132.414 103.272 132.414 66.7383C132.414 30.2043 102.797 0.587616 66.263 0.587616ZM107.133 83.5512C106.816 89.8403 105.048 96.042 100.465 100.577C95.8374 105.154 89.6063 106.86 83.2566 107.174H49.2697C42.9192 106.86 36.6889 105.155 32.0612 100.577C27.4778 96.042 25.7108 89.8403 25.3933 83.5512V49.9255C25.7108 43.6364 27.4781 37.4346 32.0612 32.8999C36.6889 28.3222 42.92 26.6166 49.2697 26.3025H83.2563C89.6068 26.6166 95.8371 28.3214 100.465 32.8999C105.048 37.4346 106.815 43.6364 107.133 49.9255L107.133 83.5512Z" fill="white"/>
<path d="M82.827 33.9641C74.5486 33.7371 57.9792 33.7371 49.7008 33.9641C45.3928 34.0824 40.5091 35.1548 37.4397 38.4332C34.2502 41.841 33.0449 45.9583 32.9226 50.5642C32.7078 58.6483 32.9226 82.9124 32.9226 82.9124C33.0626 87.5178 34.2502 91.6356 37.4397 95.0434C40.5091 98.3229 45.3928 99.3943 49.7008 99.5125C57.9792 99.7396 74.5486 99.7396 82.827 99.5125C87.135 99.3943 92.0188 98.3218 95.0882 95.0434C98.2777 91.6356 99.483 87.5184 99.6052 82.9124V50.5642C99.483 45.9583 98.2777 41.841 95.0882 38.4332C92.0177 35.1537 87.1339 34.0824 82.827 33.9641V33.9641ZM66.2629 88.2704C62.0042 88.2704 57.8412 87.0075 54.3003 84.6416C50.7594 82.2756 47.9995 78.9127 46.3698 74.9783C44.7401 71.0438 44.3137 66.7144 45.1445 62.5376C45.9754 58.3608 48.0261 54.5242 51.0374 51.5129C54.0487 48.5015 57.8854 46.4508 62.0622 45.62C66.239 44.7892 70.5684 45.2156 74.5028 46.8453C78.4373 48.475 81.8001 51.2348 84.1661 54.7757C86.5321 58.3167 87.7949 62.4797 87.7949 66.7383C87.7949 72.449 85.5264 77.9257 81.4883 81.9638C77.4503 86.0018 71.9735 88.2704 66.2629 88.2704V88.2704ZM87.8865 49.6508C87.0348 49.6506 86.2023 49.3978 85.4942 48.9245C84.7862 48.4512 84.2344 47.7786 83.9086 46.9916C83.5828 46.2047 83.4977 45.3389 83.664 44.5036C83.8303 43.6683 84.2405 42.9011 84.8428 42.2989C85.4451 41.6968 86.2124 41.2867 87.0478 41.1206C87.8831 40.9546 88.7489 41.0399 89.5358 41.3659C90.3226 41.6918 90.9951 42.2438 91.4682 42.952C91.9414 43.6601 92.1939 44.4927 92.1939 45.3444C92.1939 45.91 92.0825 46.4701 91.866 46.9926C91.6495 47.5152 91.3322 47.9899 90.9322 48.3898C90.5322 48.7897 90.0574 49.1069 89.5348 49.3233C89.0122 49.5396 88.4521 49.6509 87.8865 49.6508Z" fill="white"/>
</svg>
