<svg width="60" height="62" viewBox="0 0 60 62" fill="none" xmlns="http://www.w3.org/2000/svg">
<path d="M7.11978 2.90186C5.5105 2.90186 4.20117 4.21119 4.20117 5.82047C4.20117 7.42987 5.5105 8.73908 7.11978 8.73908C8.72906 8.73908 10.0384 7.42975 10.0384 5.82047C10.0384 4.21119 8.72906 2.90186 7.11978 2.90186ZM7.11978 6.91541C6.51593 6.91541 6.02472 6.42408 6.02472 5.82035C6.02472 5.21661 6.51593 4.72528 7.11978 4.72528C7.72364 4.72528 8.21485 5.21661 8.21485 5.82035C8.21485 6.42432 7.72364 6.91541 7.11978 6.91541Z" fill="#EA4335"/>
<path d="M13.8756 2.90186C12.2664 2.90186 10.957 4.21119 10.957 5.82047C10.957 7.42987 12.2664 8.73908 13.8756 8.73908C15.4849 8.73908 16.7943 7.42975 16.7943 5.82047C16.7943 4.21119 15.4849 2.90186 13.8756 2.90186ZM13.8756 6.91541C13.2718 6.91541 12.7806 6.42408 12.7806 5.82035C12.7806 5.21661 13.2718 4.72528 13.8756 4.72528C14.4795 4.72528 14.9707 5.21661 14.9707 5.82035C14.9707 6.42432 14.4795 6.91541 13.8756 6.91541Z" fill="#EA4335"/>
<path d="M20.6325 2.90186C19.0231 2.90198 17.7139 4.21119 17.7139 5.82047C17.7139 7.42987 19.0232 8.73908 20.6325 8.73908C22.2419 8.73908 23.5512 7.42975 23.5512 5.82047C23.5511 4.21119 22.2418 2.90186 20.6325 2.90186ZM20.6324 6.91541C20.0285 6.91541 19.5373 6.42408 19.5373 5.82035C19.5373 5.21661 20.0285 4.72528 20.6324 4.72528C21.2362 4.72528 21.7274 5.21661 21.7274 5.82035C21.7274 6.42432 21.2362 6.91541 20.6324 6.91541Z" fill="#EA4335"/>
<path d="M57.0018 12.1322C56.7102 11.7218 56.1407 11.6256 55.7303 11.9175C55.3198 12.2095 55.2238 12.7787 55.5155 13.1889C56.7993 14.9939 57.4778 17.1231 57.4778 19.3464C57.4778 25.2118 52.706 29.9837 46.8407 29.9837C40.9753 29.9837 36.2034 25.2118 36.2034 19.3464C36.2034 13.481 40.9753 8.70917 46.8407 8.70917C49.2663 8.70917 51.5505 9.50416 53.4463 11.0082C53.8408 11.3211 54.4142 11.2551 54.7273 10.8606C55.0402 10.4661 54.9741 9.89267 54.5796 9.57954C52.3582 7.81711 49.682 6.8855 46.8407 6.8855C39.9698 6.8855 34.3799 12.4754 34.3799 19.3463C34.3799 26.2172 39.9698 31.8071 46.8407 31.8071C53.7116 31.8071 59.3014 26.2172 59.3014 19.3463C59.3016 16.7424 58.5064 14.2475 57.0018 12.1322Z" fill="#EA4335"/>
<path d="M46.9949 33.7654C46.4912 33.7654 46.083 34.1737 46.083 34.6772V56.5481C46.083 58.1938 44.7435 59.5326 43.0972 59.5326H4.80819C3.1626 59.5326 1.82367 58.1937 1.82367 56.5481V11.8378H35.1699C35.6736 11.8378 36.0817 11.4295 36.0817 10.9259C36.0817 10.4224 35.6736 10.0141 35.1699 10.0141H1.82367V4.80807C1.82367 3.16248 3.1626 1.82355 4.80819 1.82355H43.0973C44.7436 1.82355 46.0831 3.16248 46.0831 4.80807C46.0831 5.31162 46.4913 5.7199 46.995 5.7199C47.4986 5.7199 47.9068 5.31162 47.9068 4.80807C47.9066 2.15693 45.7492 0 43.0973 0H4.80819C2.15705 0 0 2.15693 0 4.80807V56.5481C0 59.1993 2.15693 61.3561 4.80819 61.3561H43.0973C45.7492 61.3561 47.9067 59.1992 47.9067 56.5481V34.6772C47.9066 34.1737 47.4985 33.7654 46.9949 33.7654Z" fill="#EA4335"/>
<path d="M30.7972 17.1719H10.5564C10.0527 17.1719 9.64453 17.5802 9.64453 18.0837C9.64453 18.5873 10.0527 18.9955 10.5564 18.9955H30.7972C31.3007 18.9955 31.709 18.5873 31.709 18.0837C31.709 17.5802 31.3008 17.1719 30.7972 17.1719Z" fill="#EA4335"/>
<path d="M7.37739 17.9054C7.20842 17.0988 6.09418 16.908 5.68817 17.6382C5.29032 18.3536 6.00179 19.2124 6.77928 18.9449C7.20231 18.7995 7.46894 18.3468 7.37739 17.9054Z" fill="#EA4335"/>
<path d="M30.7972 27.3599H10.5564C10.0527 27.3599 9.64453 27.7681 9.64453 28.2717C9.64453 28.7752 10.0527 29.1835 10.5564 29.1835H30.7972C31.3008 29.1835 31.709 28.7752 31.709 28.2717C31.709 27.7681 31.3008 27.3599 30.7972 27.3599Z" fill="#EA4335"/>
<path d="M7.12831 27.6262C6.56065 27.0759 5.5702 27.4684 5.5708 28.2718C5.57116 28.6703 5.84235 29.031 6.22319 29.1451C6.58545 29.2536 6.99086 29.1184 7.21543 28.8144C7.48159 28.4543 7.443 27.9433 7.12831 27.6262Z" fill="#EA4335"/>
<path d="M39.0025 32.4539H33.2893C32.7856 32.4539 32.3774 32.8621 32.3774 33.3657C32.3774 33.8692 32.7856 34.2775 33.2893 34.2775H39.0025C39.506 34.2775 39.9143 33.8692 39.9143 33.3657C39.9143 32.8621 39.5061 32.4539 39.0025 32.4539Z" fill="#EA4335"/>
<path d="M30.2498 32.4539H19.613C19.1093 32.4539 18.7012 32.8621 18.7012 33.3657C18.7012 33.8692 19.1093 34.2775 19.613 34.2775H30.2498C30.7535 34.2775 31.1616 33.8692 31.1616 33.3657C31.1616 32.8621 30.7533 32.4539 30.2498 32.4539Z" fill="#EA4335"/>
<path d="M16.5739 32.4539H10.5564C10.0527 32.4539 9.64453 32.8621 9.64453 33.3657C9.64453 33.8692 10.0527 34.2775 10.5564 34.2775H16.5739C17.0776 34.2775 17.4858 33.8692 17.4858 33.3657C17.4858 32.8621 17.0776 32.4539 16.5739 32.4539Z" fill="#EA4335"/>
<path d="M7.12897 32.7214C6.54824 32.1406 5.52256 32.6023 5.57361 33.4223C5.59674 33.7937 5.85247 34.1195 6.20599 34.2333C6.59162 34.3575 7.02627 34.2035 7.24713 33.8639C7.47949 33.5069 7.43083 33.0232 7.12897 32.7214Z" fill="#EA4335"/>
<path d="M25.3267 37.5481H10.5564C10.0527 37.5481 9.64453 37.9564 9.64453 38.4599C9.64453 38.9635 10.0527 39.3718 10.5564 39.3718H25.3267C25.8303 39.3718 26.2385 38.9635 26.2385 38.4599C26.2385 37.9564 25.8303 37.5481 25.3267 37.5481Z" fill="#EA4335"/>
<path d="M7.37768 38.2825C7.20847 37.4749 6.1001 37.2867 5.69086 38.0115C5.48822 38.3704 5.55437 38.8318 5.85228 39.1176C6.12503 39.3792 6.54086 39.4441 6.88108 39.2803C7.2479 39.1037 7.46072 38.6825 7.37768 38.2825Z" fill="#EA4335"/>
<path d="M34.4438 42.6418H31.6482C31.1445 42.6418 30.7363 43.0501 30.7363 43.5537C30.7363 44.0572 31.1445 44.4655 31.6482 44.4655H34.4438C34.9475 44.4655 35.3557 44.0572 35.3557 43.5537C35.3557 43.0501 34.9475 42.6418 34.4438 42.6418Z" fill="#EA4335"/>
<path d="M28.6085 42.6418H20.5246C20.021 42.6418 19.6128 43.0501 19.6128 43.5537C19.6128 44.0572 20.021 44.4655 20.5246 44.4655H28.6085C29.1121 44.4655 29.5204 44.0572 29.5204 43.5537C29.5204 43.0501 29.1122 42.6418 28.6085 42.6418Z" fill="#EA4335"/>
<path d="M17.4857 42.6418H10.5564C10.0527 42.6418 9.64453 43.0501 9.64453 43.5537C9.64453 44.0572 10.0527 44.4655 10.5564 44.4655H17.4857C17.9893 44.4655 18.3975 44.0572 18.3975 43.5537C18.3975 43.0501 17.9893 42.6418 17.4857 42.6418Z" fill="#EA4335"/>
<path d="M7.12895 42.909C6.54846 42.3285 5.52279 42.7913 5.5736 43.6101C5.59672 43.982 5.85186 44.3073 6.20597 44.4211C6.5916 44.5448 7.02625 44.3925 7.24711 44.0522C7.47935 43.6947 7.43106 43.2112 7.12895 42.909Z" fill="#EA4335"/>
<path d="M38.6385 47.7361H25.6311C25.1274 47.7361 24.7192 48.1444 24.7192 48.6479C24.7192 49.1515 25.1274 49.5598 25.6311 49.5598H38.6383C39.142 49.5598 39.5502 49.1515 39.5502 48.6479C39.5502 48.1442 39.1421 47.7361 38.6385 47.7361Z" fill="#EA4335"/>
<path d="M22.5914 47.7361H10.5564C10.0527 47.7361 9.64453 48.1444 9.64453 48.6479C9.64453 49.1515 10.0527 49.5598 10.5564 49.5598H22.5914C23.0949 49.5598 23.5032 49.1515 23.5032 48.6479C23.5032 48.1442 23.0951 47.7361 22.5914 47.7361Z" fill="#EA4335"/>
<path d="M7.37801 48.4698C7.2124 47.6796 6.13232 47.4725 5.70678 48.1717C5.28064 48.8718 5.96347 49.7608 6.74839 49.52C7.18783 49.3852 7.47208 48.9236 7.37801 48.4698Z" fill="#EA4335"/>
<path d="M16.5739 52.8306H10.5564C10.0527 52.8306 9.64453 53.2388 9.64453 53.7424C9.64453 54.2459 10.0527 54.6542 10.5564 54.6542H16.5739C17.0776 54.6542 17.4858 54.2459 17.4858 53.7424C17.4858 53.2388 17.0776 52.8306 16.5739 52.8306Z" fill="#EA4335"/>
<path d="M7.32557 53.3935C7.01651 52.66 5.95033 52.6577 5.64175 53.3935C5.48632 53.7641 5.60232 54.2102 5.91917 54.4581C6.20306 54.6802 6.59996 54.7153 6.91717 54.5439C7.32089 54.3261 7.50496 53.8176 7.32557 53.3935Z" fill="#EA4335"/>
<path d="M15.1151 22.2656H10.5564C10.0527 22.2656 9.64453 22.6739 9.64453 23.1775C9.64453 23.681 10.0527 24.0893 10.5564 24.0893H15.1151C15.6187 24.0893 16.0269 23.681 16.0269 23.1775C16.0269 22.6739 15.6187 22.2656 15.1151 22.2656Z" fill="#EA4335"/>
<path d="M27.1499 22.2656H18.3972C17.8935 22.2656 17.4854 22.6739 17.4854 23.1775C17.4854 23.681 17.8935 24.0893 18.3972 24.0893H27.1499C27.6536 24.0893 28.0617 23.681 28.0617 23.1775C28.0617 22.6739 27.6537 22.2656 27.1499 22.2656Z" fill="#EA4335"/>
<path d="M7.37802 22.9993C7.21061 22.2005 6.11387 22.0023 5.6978 22.7166C5.28149 23.4311 5.99607 24.3103 6.78004 24.0399C7.2027 23.8941 7.46958 23.4403 7.37802 22.9993Z" fill="#EA4335"/>
<path d="M52.1892 13.3426C51.7437 13.1081 51.1922 13.2793 50.9577 13.725L46.076 23.0001L42.5754 19.3535C42.2265 18.9903 41.6495 18.9785 41.2862 19.3271C40.9231 19.676 40.9111 20.2531 41.2599 20.6163L45.6363 25.175C45.8095 25.3554 46.0476 25.4553 46.294 25.4553C46.3363 25.4553 46.3788 25.4525 46.4215 25.4463C46.7117 25.4054 46.9645 25.2275 47.1008 24.9682L52.5714 14.5742C52.806 14.1285 52.6348 13.5772 52.1892 13.3426Z" fill="#EA4335"/>
</svg>
