<svg width="135" height="135" viewBox="0 0 135 135" fill="none" xmlns="http://www.w3.org/2000/svg">
<path fill-rule="evenodd" clip-rule="evenodd" d="M67.5 135C30.2803 135 0 104.72 0 67.5C0 30.2803 30.2803 0 67.5 0C104.72 0 135 30.2803 135 67.5C135 104.72 104.72 135 67.5 135ZM102.505 91.2123C103.337 91.2123 104.014 90.5352 104.014 89.7028V47.3262L69.6708 74.5983C69.0354 75.1032 68.2673 75.3556 67.4997 75.3556C66.7322 75.3556 65.9644 75.103 65.3287 74.5983L30.9857 47.3262V89.7028C30.9857 90.5352 31.663 91.2123 32.4952 91.2123H102.505ZM97.2417 43.7877L67.5 67.4061L37.7581 43.7877H97.2417ZM110.997 45.2972V89.7033C110.997 94.3858 107.187 98.1956 102.505 98.1956H32.4952C27.8124 98.1956 24.0031 94.3858 24.0031 89.7033V45.2972C24.0031 40.6147 27.8126 36.8052 32.4952 36.8052H102.505C107.187 36.8049 110.997 40.6147 110.997 45.2972Z" fill="white"/>
</svg>
