<svg width="58" height="65" viewBox="0 0 58 65" fill="none" xmlns="http://www.w3.org/2000/svg">
<path d="M23.1978 14.5632C24.1936 15.559 25.5019 16.0571 26.81 16.0571C28.118 16.0571 29.4261 15.5592 30.422 14.5632C30.7932 14.1921 30.7932 13.5906 30.4221 13.2195C30.051 12.8484 29.4494 12.8483 29.0784 13.2195C27.8275 14.4704 25.7923 14.4701 24.5415 13.2195C24.1707 12.8484 23.5691 12.8483 23.1978 13.2195C22.8266 13.5906 22.8266 14.1923 23.1978 14.5632Z" fill="#EA4335"/>
<path d="M24.7485 10.8356C25.2734 10.8356 25.6987 10.4101 25.6987 9.88538V8.28955C25.6987 7.76479 25.2734 7.33936 24.7485 7.33936C24.2236 7.33936 23.7983 7.76479 23.7983 8.28955V9.88551C23.7983 10.4101 24.2238 10.8356 24.7485 10.8356Z" fill="#EA4335"/>
<path d="M29.8213 9.88538V8.28955C29.8213 7.76479 29.396 7.33936 28.8711 7.33936C28.3462 7.33936 27.9209 7.76479 27.9209 8.28955V9.88551C27.9209 10.4103 28.3462 10.8357 28.8711 10.8357C29.396 10.8356 29.8213 10.4101 29.8213 9.88538Z" fill="#EA4335"/>
<path d="M56.7749 51.5793L54.1638 50.434C53.6832 50.2232 53.1227 50.4419 52.912 50.9224C52.7012 51.403 52.9199 51.9635 53.4004 52.1743L56.0115 53.3197C56.05 53.3366 56.1144 53.3648 56.0959 53.4752C56.0774 53.5861 56.0072 53.5921 55.9659 53.5955L52.5122 53.8831C51.5132 53.9663 50.7278 54.7518 50.6446 55.7508L50.3569 59.2048C50.3534 59.2465 50.3477 59.3161 50.2373 59.3346C50.1257 59.3529 50.098 59.2887 50.0813 59.2502L46.4933 51.067C46.2356 50.479 46.5903 50.0586 46.7051 49.9437C46.82 49.8288 47.2409 49.4737 47.83 49.7319L49.9255 50.6504C50.4059 50.8612 50.9665 50.6423 51.1772 50.1616C51.3879 49.6811 51.1691 49.1206 50.6884 48.9099L48.5931 47.9914C48.0943 47.7727 47.563 47.7022 47.0513 47.7674C47.0716 47.5459 47.0835 47.3221 47.0835 47.0954C47.0835 43.0667 43.8058 39.7891 39.7771 39.7891C37.1087 39.7891 34.771 41.2277 33.4957 43.3694L27.7858 40.9218C27.805 40.7741 27.8159 40.6238 27.8159 40.471C27.8159 38.874 26.7382 37.5247 25.2722 37.1096V28.5068L33.0731 29.794C33.444 31.3249 34.825 32.4652 36.4681 32.4652C38.3944 32.4652 39.9617 30.8979 39.9617 28.9714C39.9617 28.4236 39.8347 27.905 39.609 27.4433L45.9114 20.8497C47.187 19.5151 47.1628 17.3673 45.8574 16.0617L45.7841 15.9885C45.4129 15.6174 44.8114 15.6174 44.4403 15.9885C44.0692 16.3596 44.0692 16.9612 44.4403 17.3322L44.5135 17.4054C45.0947 17.9864 45.1055 18.9423 44.5375 19.5364L38.3379 26.0226C37.7968 25.6783 37.1555 25.4779 36.4679 25.4779C34.9224 25.4779 33.609 26.487 33.1496 27.8807L25.2721 26.5809V25.8097C26.6058 25.4321 27.6172 24.2813 27.7889 22.8738C32.672 21.3683 36.0222 16.8761 36.0222 11.6988C36.0224 5.24798 30.7737 0 24.3223 0C21.0837 0 18.0718 1.29328 15.8418 3.6419C15.4803 4.02249 15.496 4.6239 15.8765 4.98523C16.2568 5.34668 16.8583 5.3311 17.2198 4.95051C19.0875 2.98361 21.6099 1.90039 24.3223 1.90039C29.7257 1.90039 34.122 6.29586 34.122 11.6988C34.122 15.9424 31.4358 19.6373 27.489 20.9753C26.9322 19.7832 25.7224 18.9546 24.3221 18.9546C22.9219 18.9546 21.7121 19.783 21.1552 20.9752C17.2093 19.6372 14.5239 15.9424 14.5239 11.6988C14.5239 10.3548 14.791 9.05345 15.318 7.83061C15.5258 7.34867 15.3033 6.78971 14.8214 6.58206C14.3391 6.37428 13.7803 6.59688 13.5728 7.07869C12.9429 8.54035 12.6236 10.0949 12.6236 11.6989C12.6236 16.8762 15.9733 21.3683 20.8552 22.8738C21.0269 24.2811 22.0382 25.432 23.3719 25.8097V26.6712L12.6975 29.7308C12.0951 28.6777 10.9612 27.9661 9.6636 27.9661C7.73724 27.9661 6.16993 29.5334 6.16993 31.4599C6.16993 32.7703 6.8955 33.9138 7.96554 34.5116L6.34996 41.3367C6.20249 41.9593 5.65277 42.3941 5.0131 42.3941H4.4858C3.96092 42.3941 3.53561 42.8195 3.53561 43.3443C3.53561 43.8691 3.96092 44.2945 4.4858 44.2945H5.0131C6.53772 44.2945 7.84784 43.2583 8.19904 41.7746L9.81449 34.9498C11.6323 34.8721 13.0939 33.3991 13.1542 31.5769L23.3717 28.6482V37.11C21.9059 37.5251 20.8284 38.8743 20.8284 40.4713C20.8284 41.568 21.3367 42.5477 22.1296 43.1886L18.7895 51.0243C18.6438 51.0058 18.4956 50.995 18.3448 50.995C16.9154 50.995 15.6842 51.8584 15.1439 53.0909L6.95289 51.9678C6.71597 50.2701 5.25533 48.9589 3.49367 48.9589C1.56731 48.9589 0 50.5263 0 52.4527C0 53.4526 0.4229 54.355 1.09842 54.9925L0.221205 56.6753C-0.021411 57.1406 0.159252 57.7145 0.624594 57.957C0.764843 58.0303 0.914974 58.0648 1.06308 58.0648C1.40578 58.0648 1.73695 57.8787 1.90634 57.5536L2.7823 55.8734C3.01212 55.9211 3.25004 55.9464 3.4938 55.9464C4.92327 55.9464 6.15447 55.083 6.69481 53.8505L14.8859 54.9737C15.1228 56.6714 16.5833 57.9825 18.3451 57.9825C20.2714 57.9825 21.8388 56.4152 21.8388 54.4887C21.8388 53.3919 21.3303 52.4119 20.5372 51.771L23.8772 43.9356C24.0232 43.9542 24.1714 43.9648 24.3223 43.9648C25.4168 43.9648 26.395 43.4585 27.0361 42.6682L32.7457 45.1156C32.568 45.7458 32.4709 46.4093 32.4709 47.0954C32.4709 50.2233 34.4472 52.8974 37.2162 53.9373L36.3012 57.8833C34.4521 57.9707 32.9744 59.5023 32.9744 61.3727C32.9744 63.2991 34.5417 64.8665 36.4681 64.8665C37.5513 64.8665 38.521 64.3708 39.1623 63.5945L41.8743 64.7861C41.9987 64.8409 42.1284 64.8667 42.2561 64.8667C42.6217 64.8667 42.9702 64.6546 43.1265 64.2985C43.3376 63.8181 43.1193 63.2575 42.6389 63.0464L39.9277 61.8551C39.9496 61.6974 39.9617 61.5365 39.9617 61.3728C39.9617 60.0567 39.2301 58.9087 38.1523 58.3132L39.0674 54.3668C39.301 54.3895 39.5377 54.4018 39.7771 54.4018C41.7916 54.4018 43.6181 53.5823 44.9411 52.2593L48.3409 60.0132C48.6751 60.7753 49.3953 61.2384 50.1985 61.2384C50.3142 61.2384 50.4317 61.2287 50.5499 61.209C51.4887 61.0524 52.1724 60.3101 52.251 59.3622L52.5388 55.9084C52.5445 55.8392 52.601 55.7826 52.6701 55.7769L56.1245 55.4892C57.0728 55.4096 57.815 54.7254 57.971 53.7867C58.1267 52.8484 57.646 51.9613 56.7749 51.5793ZM36.4679 27.3783C37.3466 27.3783 38.0612 28.0931 38.0612 28.9715C38.0612 29.85 37.3464 30.565 36.4679 30.565C35.5895 30.565 34.8747 29.8502 34.8747 28.9715C34.8747 28.0929 35.5895 27.3783 36.4679 27.3783ZM9.66347 33.0531C8.78486 33.0531 8.07019 32.3383 8.07019 31.4598C8.07019 30.5813 8.78499 29.8664 9.66347 29.8664C10.542 29.8664 11.2568 30.5812 11.2568 31.4598C11.2568 32.3384 10.542 33.0531 9.66347 33.0531ZM3.49367 54.0459C2.61506 54.0459 1.90039 53.3311 1.90039 52.4526C1.90039 51.5741 2.61519 50.8592 3.49367 50.8592C4.37216 50.8592 5.08696 51.574 5.08696 52.4526C5.08696 53.3312 4.37216 54.0459 3.49367 54.0459ZM18.3448 56.082C17.4662 56.082 16.7515 55.3672 16.7515 54.4886C16.7515 53.61 17.4663 52.8952 18.3448 52.8952C19.2233 52.8952 19.9381 53.61 19.9381 54.4886C19.9381 55.3672 19.2234 56.082 18.3448 56.082ZM22.7288 22.4484C22.7288 21.5698 23.4436 20.855 24.3221 20.855C25.2005 20.855 25.9153 21.5698 25.9153 22.4484C25.9153 23.327 25.2005 24.0417 24.3221 24.0417C23.4436 24.0417 22.7288 23.3269 22.7288 22.4484ZM24.3221 42.0645C23.4434 42.0645 22.7288 41.3497 22.7288 40.4712C22.7288 39.5927 23.4436 38.8778 24.3221 38.8778C25.2005 38.8778 25.9153 39.5926 25.9153 40.4712C25.9153 41.3498 25.2007 42.0645 24.3221 42.0645ZM36.4679 62.9662C35.5893 62.9662 34.8747 62.2514 34.8747 61.3728C34.8747 60.4942 35.5895 59.7795 36.4679 59.7795C37.3464 59.7795 38.0612 60.4943 38.0612 61.3728C38.0612 62.2513 37.3466 62.9662 36.4679 62.9662ZM34.3711 47.0954C34.3711 46.6749 34.421 46.266 34.5122 45.8728L36.3134 46.6449C36.2942 46.7926 36.2833 46.9428 36.2833 47.0954C36.2833 48.4115 37.0151 49.5596 38.0929 50.1552L37.6501 52.0647C35.7239 51.237 34.3711 49.3214 34.3711 47.0954ZM39.777 48.6888C38.8984 48.6888 38.1837 47.974 38.1837 47.0954C38.1837 46.2168 38.8985 45.502 39.777 45.502C40.6558 45.502 41.3704 46.2168 41.3704 47.0954C41.3704 47.974 40.6558 48.6888 39.777 48.6888ZM39.777 52.5014C39.6847 52.5014 39.5927 52.499 39.5013 52.4944L39.9441 50.585C41.7933 50.4975 43.2708 48.9659 43.2708 47.0955C43.2708 45.1691 41.7035 43.6017 39.777 43.6017C38.6824 43.6017 37.7041 44.1083 37.063 44.8987L35.2623 44.1269C36.2301 42.66 37.892 41.6896 39.777 41.6896C42.7578 41.6896 45.183 44.1147 45.183 47.0955C45.183 50.0764 42.758 52.5014 39.777 52.5014Z" fill="#EA4335"/>
</svg>
