<svg width="1440" height="678" viewBox="0 0 1440 678" fill="none" xmlns="http://www.w3.org/2000/svg">
<line x1="0.5" y1="-77" x2="0.5" y2="745.857" stroke="#EBF6EE"/>
<line x1="34.7857" y1="-77" x2="34.7857" y2="745.857" stroke="#EBF6EE"/>
<line x1="69.0714" y1="-77" x2="69.0714" y2="745.857" stroke="#EBF6EE"/>
<line x1="103.357" y1="-77" x2="103.357" y2="745.857" stroke="#EBF6EE"/>
<line x1="137.643" y1="-77" x2="137.643" y2="745.857" stroke="#EBF6EE"/>
<line x1="171.929" y1="-77" x2="171.929" y2="745.857" stroke="#EBF6EE"/>
<line x1="206.214" y1="-77" x2="206.214" y2="745.857" stroke="#EBF6EE"/>
<line x1="240.5" y1="-77" x2="240.5" y2="745.857" stroke="#EBF6EE"/>
<line x1="274.786" y1="-77" x2="274.786" y2="745.857" stroke="#EBF6EE"/>
<line x1="309.071" y1="-77" x2="309.071" y2="745.857" stroke="#EBF6EE"/>
<line x1="343.357" y1="-77" x2="343.357" y2="745.857" stroke="#EBF6EE"/>
<line x1="377.643" y1="-77" x2="377.643" y2="745.857" stroke="#EBF6EE"/>
<line x1="411.929" y1="-77" x2="411.929" y2="745.857" stroke="#EBF6EE"/>
<line x1="446.214" y1="-77" x2="446.214" y2="745.857" stroke="#EBF6EE"/>
<line x1="480.5" y1="-77" x2="480.5" y2="745.857" stroke="#EBF6EE"/>
<line x1="514.786" y1="-77" x2="514.786" y2="745.857" stroke="#EBF6EE"/>
<line x1="549.071" y1="-77" x2="549.071" y2="745.857" stroke="#EBF6EE"/>
<line x1="583.357" y1="-77" x2="583.357" y2="745.857" stroke="#EBF6EE"/>
<line x1="617.643" y1="-77" x2="617.643" y2="745.857" stroke="#EBF6EE"/>
<line x1="651.929" y1="-77" x2="651.929" y2="745.857" stroke="#EBF6EE"/>
<line x1="686.214" y1="-77" x2="686.214" y2="745.857" stroke="#EBF6EE"/>
<line x1="720.5" y1="-77" x2="720.5" y2="745.857" stroke="#EBF6EE"/>
<line x1="754.786" y1="-77" x2="754.786" y2="745.857" stroke="#EBF6EE"/>
<line x1="789.071" y1="-77" x2="789.071" y2="745.857" stroke="#EBF6EE"/>
<line x1="823.357" y1="-77" x2="823.357" y2="745.857" stroke="#EBF6EE"/>
<line x1="857.643" y1="-77" x2="857.643" y2="745.857" stroke="#EBF6EE"/>
<line x1="891.929" y1="-77" x2="891.929" y2="745.857" stroke="#EBF6EE"/>
<line x1="926.214" y1="-77" x2="926.214" y2="745.857" stroke="#EBF6EE"/>
<line x1="960.5" y1="-77" x2="960.5" y2="745.857" stroke="#EBF6EE"/>
<line x1="994.786" y1="-77" x2="994.786" y2="745.857" stroke="#EBF6EE"/>
<line x1="1029.07" y1="-77" x2="1029.07" y2="745.857" stroke="#EBF6EE"/>
<line x1="1063.36" y1="-77" x2="1063.36" y2="745.857" stroke="#EBF6EE"/>
<line x1="1097.64" y1="-77" x2="1097.64" y2="745.857" stroke="#EBF6EE"/>
<line x1="1131.93" y1="-77" x2="1131.93" y2="745.857" stroke="#EBF6EE"/>
<line x1="1166.21" y1="-77" x2="1166.21" y2="745.857" stroke="#EBF6EE"/>
<line x1="1200.5" y1="-77" x2="1200.5" y2="745.857" stroke="#EBF6EE"/>
<line x1="1234.79" y1="-77" x2="1234.79" y2="745.857" stroke="#EBF6EE"/>
<line x1="1269.07" y1="-77" x2="1269.07" y2="745.857" stroke="#EBF6EE"/>
<line x1="1303.36" y1="-77" x2="1303.36" y2="745.857" stroke="#EBF6EE"/>
<line x1="1337.64" y1="-77" x2="1337.64" y2="745.857" stroke="#EBF6EE"/>
<line x1="1371.93" y1="-77" x2="1371.93" y2="745.857" stroke="#EBF6EE"/>
<line x1="1406.21" y1="-77" x2="1406.21" y2="745.857" stroke="#EBF6EE"/>
<line y1="656.976" x2="1440" y2="656.976" stroke="#EBF6EE"/>
<line y1="622.69" x2="1440" y2="622.69" stroke="#EBF6EE"/>
<line y1="588.405" x2="1440" y2="588.405" stroke="#EBF6EE"/>
<line y1="554.119" x2="1440" y2="554.119" stroke="#EBF6EE"/>
<line y1="519.833" x2="1440" y2="519.833" stroke="#EBF6EE"/>
<line y1="485.548" x2="1440" y2="485.548" stroke="#EBF6EE"/>
<line y1="451.262" x2="1440" y2="451.262" stroke="#EBF6EE"/>
<line y1="416.976" x2="1440" y2="416.976" stroke="#EBF6EE"/>
<line y1="382.69" x2="1440" y2="382.69" stroke="#EBF6EE"/>
<line y1="348.405" x2="1440" y2="348.405" stroke="#EBF6EE"/>
<line y1="314.119" x2="1440" y2="314.119" stroke="#EBF6EE"/>
<line y1="279.833" x2="1440" y2="279.833" stroke="#EBF6EE"/>
<line y1="245.548" x2="1440" y2="245.548" stroke="#EBF6EE"/>
<line y1="211.262" x2="1440" y2="211.262" stroke="#EBF6EE"/>
<line y1="176.976" x2="1440" y2="176.976" stroke="#EBF6EE"/>
<line y1="142.69" x2="1440" y2="142.69" stroke="#EBF6EE"/>
<line y1="108.405" x2="1440" y2="108.405" stroke="#EBF6EE"/>
<line y1="74.119" x2="1440" y2="74.119" stroke="#EBF6EE"/>
<line y1="39.8333" x2="1440" y2="39.8333" stroke="#EBF6EE"/>
<line y1="5.54761" x2="1440" y2="5.54761" stroke="#EBF6EE"/>
</svg>
