<svg width="70" height="70" viewBox="0 0 70 70" fill="none" xmlns="http://www.w3.org/2000/svg">
<path d="M69.1903 47.1552L59.6088 41.6324L69.1903 36.0967C69.4328 35.9554 69.6341 35.7529 69.7739 35.5095C69.9138 35.2661 69.9874 34.9903 69.9874 34.7096C69.9874 34.4289 69.9138 34.1531 69.7739 33.9097C69.6341 33.6663 69.4328 33.4638 69.1903 33.3225L59.6217 27.7868L69.1389 22.2897C69.4081 22.1506 69.6311 21.9364 69.7811 21.6732C69.8874 21.491 69.9568 21.2897 69.9853 21.0807C70.0138 20.8718 70.0008 20.6592 69.9471 20.4553C69.8935 20.2513 69.8001 20.0599 69.6725 19.892C69.5448 19.7242 69.3853 19.5831 69.2031 19.4769L35.8093 0.211196C35.5644 0.0727542 35.2879 0 35.0065 0C34.7252 0 34.4487 0.0727542 34.2038 0.211196L0.809974 19.4769C0.564419 19.6173 0.360342 19.8202 0.218408 20.0649C0.0764733 20.3096 0.00172218 20.5875 0.00172218 20.8704C0.00172218 21.1533 0.0764733 21.4312 0.218408 21.6759C0.360342 21.9206 0.564419 22.1235 0.809974 22.264L10.3786 27.7868L0.797131 33.3225C0.554588 33.4638 0.353345 33.6663 0.213476 33.9097C0.0736062 34.1531 0 34.4289 0 34.7096C0 34.9903 0.0736062 35.2661 0.213476 35.5095C0.353345 35.7529 0.554588 35.9554 0.797131 36.0967L10.3786 41.6324L0.809974 47.1552C0.564419 47.2957 0.360342 47.4986 0.218408 47.7433C0.0764733 47.988 0.00172218 48.2659 0.00172218 48.5488C0.00172218 48.8317 0.0764733 49.1095 0.218408 49.3543C0.360342 49.599 0.564419 49.8018 0.809974 49.9423L34.2038 69.208C34.4451 69.3345 34.715 69.3964 34.9873 69.3878C35.2713 69.3856 35.5499 69.3104 35.7964 69.1695L69.1903 49.9038C69.4326 49.7607 69.6334 49.5569 69.7729 49.3126C69.9124 49.0682 69.9858 48.7916 69.9858 48.5102C69.9858 48.2288 69.9124 47.9523 69.7729 47.7079C69.6334 47.4635 69.4326 47.2598 69.1903 47.1167V47.1552ZM4.80439 34.7096L13.5767 29.6491L34.1268 41.5425C34.3681 41.6846 34.643 41.7599 34.9231 41.7608C35.207 41.7586 35.4857 41.6834 35.7322 41.5425L56.2823 29.6491L65.1702 34.7096L34.9873 52.1386L4.80439 34.7096ZM34.9873 65.9714L4.80439 48.5552L13.5767 43.4177L34.1268 55.311C34.368 55.4534 34.643 55.5285 34.9231 55.5285C35.2032 55.5285 35.4781 55.4534 35.7194 55.311L56.3337 43.4177L65.106 48.5552L34.9873 65.9714Z" fill="#EA4335"/>
</svg>
