<svg width="137" height="136" viewBox="0 0 137 136" fill="none" xmlns="http://www.w3.org/2000/svg">
<path d="M68.2637 0C54.8664 0 41.7699 3.97278 30.6303 11.416C19.4908 18.8591 10.8086 29.4384 5.68169 41.816C0.55474 54.1935 -0.786704 67.8135 1.82699 80.9534C4.44069 94.0934 10.8921 106.163 20.3655 115.637C29.8389 125.11 41.9087 131.561 55.0487 134.175C68.1886 136.789 81.8085 135.447 94.1861 130.32C106.564 125.193 117.143 116.511 124.586 105.372C132.029 94.2322 136.002 81.1357 136.002 67.7383C136.002 49.773 128.865 32.5435 116.162 19.8401C103.459 7.13669 86.2291 0 68.2637 0V0ZM48.5662 103.39H33.7885V55.7861H48.5662V103.39ZM41.1684 49.2885C39.4677 49.2956 37.8031 48.7982 36.385 47.8594C34.9668 46.9206 33.8589 45.5824 33.2012 44.014C32.5434 42.4456 32.3654 40.7174 32.6896 39.0479C33.0139 37.3783 33.8258 35.8424 35.0228 34.6342C36.2198 33.426 37.7481 32.5998 39.4145 32.2601C41.0809 31.9203 42.8107 32.0821 44.3852 32.7252C45.9596 33.3683 47.3081 34.4638 48.2601 35.8731C49.2121 37.2824 49.7249 38.9423 49.7337 40.643C49.7385 42.9235 48.8402 45.1132 47.2351 46.7333C45.6301 48.3533 43.4489 49.2721 41.1684 49.2885V49.2885ZM103.915 103.39H89.1468V80.2164C89.1468 74.6904 89.0398 67.6046 81.4638 67.6046C73.8878 67.6046 72.5509 73.6119 72.5509 79.8154V103.39H57.8356V55.7861H72.0161V62.2747H72.2211C74.1908 58.5313 79.0127 54.5828 86.2055 54.5828C101.161 54.5828 103.915 64.4405 103.915 77.2395V103.39Z" fill="white"/>
</svg>
