<svg width="512" height="512" viewBox="0 0 512 512" fill="none" xmlns="http://www.w3.org/2000/svg">
<path d="M121.907 256.36L205.113 208.348C209.765 205.658 213.842 202.077 217.11 197.811C220.378 193.545 222.774 188.677 224.161 183.485C225.548 178.293 225.899 172.878 225.193 167.55C224.487 162.223 222.739 157.086 220.049 152.434C217.358 147.782 213.777 143.706 209.511 140.438C205.245 137.169 200.377 134.773 195.185 133.386C184.699 130.585 173.53 132.065 164.135 137.499L20.4531 220.433L121.907 256.36Z" fill="white"/>
<path d="M184.551 379.728C193.558 379.737 202.317 376.775 209.469 371.3C216.622 365.825 221.768 358.143 224.11 349.446C226.452 340.748 225.86 331.521 222.424 323.194C218.988 314.868 212.902 307.908 205.108 303.393L61.3718 220.432C51.9766 215.005 40.8103 213.532 30.3295 216.338C19.8487 219.145 10.9119 225.999 5.48505 235.394C0.0582051 244.79 -1.41412 255.956 1.39196 266.437C4.19805 276.918 11.0527 285.854 20.4479 291.281L164.102 374.215C170.313 377.824 177.368 379.725 184.551 379.728Z" fill="white"/>
<path d="M327.449 379.73C334.616 379.747 341.66 377.874 347.87 374.298L491.525 291.364L391.374 254.65L306.947 303.395C299.143 307.901 293.045 314.858 289.599 323.184C286.154 331.511 285.552 340.742 287.889 349.445C290.226 358.148 295.37 365.837 302.523 371.317C309.676 376.798 318.438 379.765 327.449 379.757V379.73Z" fill="white"/>
<path d="M471.013 296.763C480.027 296.783 488.795 293.824 495.954 288.346C503.113 282.869 508.262 275.18 510.6 266.474C512.939 257.769 512.335 248.535 508.884 240.207C505.432 231.88 499.327 224.927 491.516 220.427L347.861 137.493C338.466 132.067 327.3 130.594 316.819 133.4C306.338 136.206 297.401 143.061 291.974 152.456C286.547 161.852 285.075 173.018 287.881 183.499C290.687 193.979 297.542 202.916 306.937 208.343L450.592 291.277C456.797 294.871 463.842 296.764 471.013 296.763Z" fill="white"/>
</svg>
