<svg width="131" height="131" viewBox="0 0 131 131" fill="none" xmlns="http://www.w3.org/2000/svg">
<path fill-rule="evenodd" clip-rule="evenodd" d="M65.4999 0C77.6994 0.139212 88.7205 3.1375 98.5631 8.99486C108.288 14.7353 116.378 22.8747 122.059 32.6348C127.881 42.5367 130.861 53.6246 131 65.8984C130.654 82.692 125.357 97.0353 115.11 108.928C104.862 120.822 91.7365 128.179 78.1496 131V83.9161H90.995L93.8999 65.4132H74.449V53.2944C74.341 50.782 75.1355 48.314 76.6889 46.3364C78.2444 44.3535 80.9837 43.3113 84.9066 43.2098H96.6524V27.0017C96.4839 26.9475 94.8847 26.7331 91.8549 26.3584C88.4187 25.9564 84.9633 25.7417 81.5038 25.7152C73.674 25.7513 67.4816 27.9599 62.9267 32.3411C58.3717 36.7211 56.0449 43.058 55.9463 51.3518V65.4132H41.144V83.9161H55.9463V131C39.2633 128.179 26.1382 120.822 15.8903 108.928C5.64236 97.0353 0.345791 82.692 0 65.8984C0.138348 53.6241 3.1185 42.5362 8.94046 32.6348C14.6216 22.8747 22.7116 14.7353 32.4369 8.99486C42.2792 3.13863 53.3002 0.14034 65.4999 0V0Z" fill="white"/>
</svg>
