<svg width="67" height="67" viewBox="0 0 67 67" fill="none" xmlns="http://www.w3.org/2000/svg">
<path d="M66.0186 13.635C66.5607 13.635 67 13.1957 67 12.6536V6.26895C67 2.81217 64.1878 0 60.731 0H6.26947C2.81243 0 0 2.81243 0 6.26947V33.5V52.4793C0 53.0215 0.439295 53.4608 0.981445 53.4608C1.5236 53.4608 1.96289 53.0215 1.96289 52.4793V34.4814H11.6713C13.3619 34.4814 14.7374 33.106 14.7374 31.4154V31.1916C14.7374 30.3743 14.4135 29.6003 13.8261 29.0128C12.9167 28.1023 12.4159 26.8912 12.4159 25.6026C12.4159 24.2323 13.0018 22.9217 14.0232 22.0068C15.0583 21.0792 16.3979 20.6537 17.7936 20.8072C18.9954 20.9402 20.0781 21.5043 20.8574 22.3825C18.2438 25.351 16.6558 29.2433 16.6558 33.5C16.6558 37.8252 18.2949 41.7741 20.9838 44.7601C19.7981 45.8526 19.0385 47.3431 18.8561 48.991C18.6434 50.9212 19.2588 52.8514 20.5445 54.2866C21.8314 55.7232 23.6751 56.547 25.6025 56.547C27.415 56.547 29.1186 55.8423 30.4002 54.5623C30.6173 54.3451 30.8984 54.2255 31.192 54.2255L31.4145 54.2254H31.4151C31.7097 54.2254 31.9866 54.34 32.1951 54.5483C32.4035 54.7567 32.5184 55.0338 32.5184 55.3285V65.0371H6.26895C3.89464 65.0371 1.96289 63.1054 1.96289 60.731V57.0641C1.96289 56.522 1.5236 56.0827 0.981445 56.0827C0.439295 56.0827 0 56.522 0 57.0641V60.731C0 64.1878 2.81217 67 6.26895 67H60.7305C64.1876 67 67 64.1876 67 60.7305V33.5V17.2407C67 16.6986 66.5607 16.2593 66.0186 16.2593C65.4764 16.2593 65.0371 16.6986 65.0371 17.2407V32.5186H55.3287C53.6381 32.5186 52.2626 33.894 52.2626 35.5846V35.8084C52.2626 36.6257 52.5865 37.3997 53.1739 37.9872C54.0833 38.8977 54.5841 40.1088 54.5841 41.3974C54.5841 42.7677 53.9982 44.0783 52.9768 44.9932C51.9416 45.9207 50.6021 46.3462 49.2064 46.1928C48.0046 46.0598 46.9219 45.4958 46.1426 44.6176C48.7562 41.649 50.3441 37.7567 50.3441 33.5C50.3441 29.1748 48.7049 25.2259 46.016 22.2399C47.2018 21.1474 47.9614 19.6569 48.1438 18.009C48.3565 16.0788 47.741 14.1486 46.4553 12.7134C45.1685 11.2768 43.3248 10.453 41.3974 10.453C39.5848 10.453 37.8813 11.1577 36.5997 12.4377C36.3826 12.6549 36.1015 12.7745 35.8084 12.7745H35.5846C34.9764 12.7745 34.4814 12.2797 34.4814 11.6713V1.96289H60.731C63.1054 1.96289 65.0371 3.89464 65.0371 6.26895V12.6536C65.0371 13.1957 65.4764 13.635 66.0186 13.635ZM48.991 48.1438C50.9205 48.3558 52.8514 47.7413 54.2866 46.4553C55.7232 45.1685 56.547 43.3248 56.547 41.3974C56.547 39.5848 55.8423 37.8813 54.5623 36.5997C54.3451 36.3826 54.2255 36.1015 54.2255 35.8084V35.5846C54.2255 34.9764 54.7203 34.4814 55.3287 34.4814H65.0371V60.7305C65.0371 63.1051 63.1051 65.0371 60.7305 65.0371H34.4814V55.3285C34.4814 54.5092 34.1624 53.7391 33.5828 53.1599C33.0037 52.5811 32.2341 52.2626 31.4154 52.2626C31.4149 52.2626 31.4142 52.2626 31.4137 52.2626L31.1918 52.2627C30.3744 52.2627 29.6004 52.5866 29.013 53.1741C28.1024 54.0834 26.8913 54.5842 25.6028 54.5842C24.2324 54.5842 22.9219 53.9983 22.0069 52.977C21.0795 51.9417 20.6534 50.6025 20.8073 49.2065C20.9404 48.0047 21.5044 46.922 22.3826 46.1427C25.3511 48.7562 29.2434 50.3442 33.5001 50.3442C37.8253 50.3442 41.7742 48.7051 44.7602 46.0162C45.8526 47.2019 47.3431 47.9615 48.991 48.1438ZM33.5 48.3813C25.2945 48.3813 18.6187 41.7055 18.6187 33.5C18.6187 25.2945 25.2945 18.6187 33.5 18.6187C41.7055 18.6187 48.3813 25.2945 48.3813 33.5C48.3813 41.7055 41.7055 48.3813 33.5 48.3813ZM35.5846 14.7374H35.8084C36.6257 14.7374 37.3997 14.4135 37.9872 13.8261C38.8977 12.9167 40.1088 12.4159 41.3974 12.4159C42.7677 12.4159 44.0783 13.0018 44.9932 14.0232C45.9207 15.0584 46.3467 16.3976 46.1928 17.7936C46.0598 18.9954 45.4958 20.0781 44.6176 20.8574C41.649 18.2438 37.7567 16.6558 33.5 16.6558C29.1748 16.6558 25.2259 18.2949 22.2399 20.9838C21.1474 19.7981 19.6569 19.0385 18.009 18.8561C16.0796 18.6445 14.1486 19.2587 12.7134 20.5445C11.2768 21.8314 10.453 23.6751 10.453 25.6025C10.453 27.415 11.1577 29.1186 12.4377 30.4002C12.6549 30.6173 12.7745 30.8984 12.7745 31.1915V31.4153C12.7745 32.0235 12.2797 32.5184 11.6713 32.5184H1.96289V6.26947C1.96289 3.8949 3.8949 1.96289 6.26947 1.96289H32.5186V11.6713C32.5186 13.3619 33.894 14.7374 35.5846 14.7374Z" fill="#EA4335"/>
<path d="M42.4062 27.2638L38.9448 24.7593C38.734 24.6065 38.4706 24.5443 38.2141 24.5854C37.957 24.6266 37.7269 24.7682 37.5744 24.9791L31.0098 34.0522L28.9672 31.9154C28.5926 31.5238 27.9715 31.5094 27.5796 31.8842L24.4912 34.8364C24.303 35.0163 24.194 35.2636 24.1882 35.5238C24.1825 35.7839 24.2801 36.0358 24.4599 36.2241L29.679 41.684C30.1354 42.1615 30.761 42.4274 31.4161 42.4274C31.4711 42.4274 31.5264 42.4254 31.5818 42.4217C32.2963 42.3729 32.947 42.0122 33.3668 41.4319L42.6262 28.6345C42.9436 28.1951 42.8452 27.5814 42.4062 27.2638ZM31.7764 40.2809C31.6705 40.4271 31.5251 40.4578 31.4478 40.4632C31.3707 40.4674 31.2223 40.4578 31.0977 40.3275V40.3273L26.5568 35.577L28.2263 33.9812L30.4047 36.2602C30.6061 36.4708 30.8912 36.5811 31.1812 36.5612C31.4719 36.5414 31.7387 36.3934 31.9093 36.1574L38.5892 26.9249L40.4603 28.2787L31.7764 40.2809Z" fill="#EA4335"/>
</svg>
