<svg width="137" height="136" viewBox="0 0 137 136" fill="none" xmlns="http://www.w3.org/2000/svg">
<path d="M68.3255 135.477C63.7403 135.478 59.1666 135.017 54.6738 134.101C46.0092 132.326 37.7788 128.863 30.4524 123.908C19.5617 116.557 11.0368 106.204 5.91044 94.1054C4.17823 90.0077 2.856 85.7485 1.9631 81.3902C0.128186 72.3816 0.128186 63.0955 1.9631 54.0869C3.73769 45.4223 7.20107 37.1919 12.1556 29.8654C19.5074 18.9748 29.8598 10.4499 41.9583 5.32353C46.0562 3.59129 50.3154 2.26906 54.6738 1.37618C63.6824 -0.458728 72.9685 -0.458728 81.9771 1.37618C90.6417 3.15077 98.8721 6.61415 106.199 11.5687C117.089 18.9205 125.614 29.2728 130.741 41.3714C132.473 45.4693 133.795 49.7285 134.688 54.0869C136.523 63.0955 136.523 72.3816 134.688 81.3902C132.913 90.0548 129.45 98.2852 124.495 105.612C117.143 116.502 106.791 125.027 94.6924 130.154C90.5946 131.886 86.3354 133.208 81.9771 134.101C77.4844 135.017 72.9107 135.478 68.3255 135.477V135.477ZM83.1681 41.8961C81.6687 41.8986 80.196 42.293 78.8961 43.0403C77.5962 43.7876 76.5143 44.8617 75.7577 46.1562C75.1893 47.1224 74.8194 48.1921 74.6694 49.3029C74.5195 50.4137 74.5926 51.5433 74.8845 52.6255C75.4691 54.8171 76.8956 56.6891 78.8535 57.8342L96.0196 67.7304L78.7646 77.653C76.8067 78.7981 75.3802 80.6701 74.7956 82.8617C74.3148 84.7029 74.4552 86.6514 75.195 88.4047C75.9348 90.158 77.2327 91.618 78.8871 92.5583C80.8225 93.6503 83.1064 93.9477 85.2569 93.3878C85.9917 93.1977 86.6955 92.9037 87.3473 92.5147L116.848 75.5084C118.664 74.6701 120.126 73.2169 120.975 71.4054C121.823 69.5939 122.004 67.5407 121.486 65.6085C120.901 63.417 119.475 61.545 117.517 60.3998L87.4369 43.0593C86.144 42.2969 84.6704 41.8949 83.1694 41.8951L83.1681 41.8961ZM53.2185 41.8075C51.7176 41.8092 50.2443 42.2111 48.9505 42.9717L18.8712 60.3112L18.9723 60.3469C17.6477 61.0965 16.5446 62.1827 15.7748 63.4957C15.2066 64.4618 14.8366 65.5316 14.6867 66.6424C14.5368 67.7532 14.6099 68.8827 14.9016 69.9649C15.4864 72.1565 16.9128 74.0284 18.8707 75.1736L48.9507 92.5139C49.6025 92.9028 50.3064 93.1968 51.0411 93.3871C51.7452 93.5709 52.4699 93.6638 53.1976 93.6636C54.6722 93.6617 56.1222 93.2849 57.4111 92.5686C58.7483 91.8272 59.8602 90.7381 60.6292 89.4167C61.1976 88.4506 61.5675 87.3808 61.7175 86.27C61.8674 85.1592 61.7943 84.0296 61.5024 82.9474C60.9177 80.7559 59.4912 78.8841 57.5334 77.739L40.2247 67.7619L57.5334 57.7456C59.4912 56.6003 60.9176 54.7284 61.5024 52.5369C61.7943 51.4546 61.8674 50.325 61.7175 49.2142C61.5675 48.1033 61.1976 47.0335 60.6292 46.0673C59.8726 44.7728 58.7906 43.6987 57.4906 42.9515C56.1907 42.2042 54.7179 41.8099 53.2185 41.8075V41.8075Z" fill="white"/>
</svg>
