<svg width="364" height="539" viewBox="0 0 364 539" fill="none" xmlns="http://www.w3.org/2000/svg">
<g filter="url(#filter0_d_359_565)">
<rect x="29" y="203" width="292" height="50" rx="25" fill="#FBBC04"/>
<path d="M49.952 228.78V234H48.296V221.112H52.688C53.804 221.112 54.752 221.484 55.532 222.228C56.324 222.972 56.72 223.878 56.72 224.946C56.72 226.038 56.324 226.95 55.532 227.682C54.764 228.414 53.816 228.78 52.688 228.78H49.952ZM49.952 222.696V227.196H52.724C53.384 227.196 53.93 226.974 54.362 226.53C54.806 226.086 55.028 225.558 55.028 224.946C55.028 224.346 54.806 223.824 54.362 223.38C53.93 222.924 53.384 222.696 52.724 222.696H49.952ZM59.8242 234H58.1682V225.18H59.7522V226.62H59.8242C59.9922 226.152 60.3342 225.756 60.8502 225.432C61.3782 225.096 61.8942 224.928 62.3982 224.928C62.8782 224.928 63.2862 225 63.6222 225.144L63.1182 226.746C62.9142 226.662 62.5902 226.62 62.1462 226.62C61.5222 226.62 60.9762 226.872 60.5082 227.376C60.0522 227.88 59.8242 228.468 59.8242 229.14V234ZM63.6583 229.59C63.6583 228.234 64.0843 227.112 64.9363 226.224C65.8003 225.336 66.8863 224.892 68.1943 224.892C69.5023 224.892 70.5823 225.336 71.4343 226.224C72.2983 227.112 72.7303 228.234 72.7303 229.59C72.7303 230.958 72.2983 232.08 71.4343 232.956C70.5823 233.844 69.5023 234.288 68.1943 234.288C66.8863 234.288 65.8003 233.844 64.9363 232.956C64.0843 232.068 63.6583 230.946 63.6583 229.59ZM65.3143 229.59C65.3143 230.538 65.5903 231.306 66.1423 231.894C66.6943 232.482 67.3783 232.776 68.1943 232.776C69.0103 232.776 69.6943 232.482 70.2463 231.894C70.7983 231.306 71.0743 230.538 71.0743 229.59C71.0743 228.654 70.7983 227.892 70.2463 227.304C69.6823 226.704 68.9983 226.404 68.1943 226.404C67.3903 226.404 66.7063 226.704 66.1423 227.304C65.5903 227.892 65.3143 228.654 65.3143 229.59ZM76.2887 222.138C76.2887 222.462 76.1747 222.738 75.9467 222.966C75.7187 223.194 75.4427 223.308 75.1187 223.308C74.7947 223.308 74.5187 223.194 74.2907 222.966C74.0627 222.738 73.9487 222.462 73.9487 222.138C73.9487 221.814 74.0627 221.538 74.2907 221.31C74.5187 221.082 74.7947 220.968 75.1187 220.968C75.4427 220.968 75.7187 221.082 75.9467 221.31C76.1747 221.538 76.2887 221.814 76.2887 222.138ZM73.3007 238.068C72.9407 238.068 72.6167 238.008 72.3287 237.888L72.7607 236.448C72.9527 236.52 73.1147 236.556 73.2467 236.556C73.9187 236.556 74.2667 236.142 74.2907 235.314V225.18H75.9467V235.062C75.9467 237.066 75.0647 238.068 73.3007 238.068ZM81.9739 234.288C80.6779 234.288 79.6099 233.844 78.7699 232.956C77.9299 232.068 77.5099 230.946 77.5099 229.59C77.5099 228.246 77.9179 227.13 78.7339 226.242C79.5499 225.342 80.5939 224.892 81.8659 224.892C83.1739 224.892 84.2119 225.318 84.9799 226.17C85.7599 227.01 86.1499 228.192 86.1499 229.716L86.1319 229.896H79.2019C79.2259 230.76 79.5139 231.456 80.0659 231.984C80.6179 232.512 81.2779 232.776 82.0459 232.776C83.1019 232.776 83.9299 232.248 84.5299 231.192L86.0059 231.912C85.6099 232.656 85.0579 233.238 84.3499 233.658C83.6539 234.078 82.8619 234.288 81.9739 234.288ZM79.3279 228.528H84.3859C84.3379 227.916 84.0859 227.412 83.6299 227.016C83.1859 226.608 82.5859 226.404 81.8299 226.404C81.2059 226.404 80.6659 226.596 80.2099 226.98C79.7659 227.364 79.4719 227.88 79.3279 228.528ZM91.7841 234.288C90.4761 234.288 89.3901 233.844 88.5261 232.956C87.6741 232.044 87.2481 230.922 87.2481 229.59C87.2481 228.234 87.6741 227.112 88.5261 226.224C89.3901 225.336 90.4761 224.892 91.7841 224.892C92.6841 224.892 93.4701 225.12 94.1421 225.576C94.8141 226.02 95.3181 226.638 95.6541 227.43L94.1421 228.06C93.6741 226.956 92.8521 226.404 91.6761 226.404C90.9201 226.404 90.2661 226.71 89.7141 227.322C89.1741 227.934 88.9041 228.69 88.9041 229.59C88.9041 230.49 89.1741 231.246 89.7141 231.858C90.2661 232.47 90.9201 232.776 91.6761 232.776C92.8881 232.776 93.7401 232.224 94.2321 231.12L95.7081 231.75C95.3841 232.542 94.8741 233.166 94.1781 233.622C93.4941 234.066 92.6961 234.288 91.7841 234.288ZM100.561 234.144C99.8405 234.144 99.2405 233.922 98.7605 233.478C98.2925 233.034 98.0525 232.416 98.0405 231.624V226.692H96.4925V225.18H98.0405V222.48H99.6965V225.18H101.857V226.692H99.6965V231.084C99.6965 231.672 99.8105 232.074 100.039 232.29C100.267 232.494 100.525 232.596 100.813 232.596C100.945 232.596 101.071 232.584 101.191 232.56C101.323 232.524 101.443 232.482 101.551 232.434L102.073 233.91C101.641 234.066 101.137 234.144 100.561 234.144ZM107.675 234V221.112H111.617C113.585 221.112 115.163 221.706 116.351 222.894C117.551 224.082 118.151 225.636 118.151 227.556C118.151 229.488 117.551 231.048 116.351 232.236C115.163 233.412 113.585 234 111.617 234H107.675ZM109.331 222.696V232.416H111.617C113.117 232.416 114.299 231.99 115.163 231.138C116.027 230.274 116.459 229.08 116.459 227.556C116.459 226.044 116.027 224.856 115.163 223.992C114.299 223.128 113.117 222.696 111.617 222.696H109.331ZM123.529 234.288C122.233 234.288 121.165 233.844 120.325 232.956C119.485 232.068 119.065 230.946 119.065 229.59C119.065 228.246 119.473 227.13 120.289 226.242C121.105 225.342 122.149 224.892 123.421 224.892C124.729 224.892 125.767 225.318 126.535 226.17C127.315 227.01 127.705 228.192 127.705 229.716L127.687 229.896H120.757C120.781 230.76 121.069 231.456 121.621 231.984C122.173 232.512 122.833 232.776 123.601 232.776C124.657 232.776 125.485 232.248 126.085 231.192L127.561 231.912C127.165 232.656 126.613 233.238 125.905 233.658C125.209 234.078 124.417 234.288 123.529 234.288ZM120.883 228.528H125.941C125.893 227.916 125.641 227.412 125.185 227.016C124.741 226.608 124.141 226.404 123.385 226.404C122.761 226.404 122.221 226.596 121.765 226.98C121.321 227.364 121.027 227.88 120.883 228.528ZM136.057 231.552C136.057 232.32 135.721 232.968 135.049 233.496C134.377 234.024 133.531 234.288 132.511 234.288C131.623 234.288 130.843 234.06 130.171 233.604C129.499 233.136 129.019 232.524 128.731 231.768L130.207 231.138C130.423 231.666 130.735 232.08 131.143 232.38C131.563 232.668 132.019 232.812 132.511 232.812C133.039 232.812 133.477 232.698 133.825 232.47C134.185 232.242 134.365 231.972 134.365 231.66C134.365 231.096 133.933 230.682 133.069 230.418L131.557 230.04C129.841 229.608 128.983 228.78 128.983 227.556C128.983 226.752 129.307 226.11 129.955 225.63C130.615 225.138 131.455 224.892 132.475 224.892C133.255 224.892 133.957 225.078 134.581 225.45C135.217 225.822 135.661 226.32 135.913 226.944L134.437 227.556C134.269 227.184 133.993 226.896 133.609 226.692C133.237 226.476 132.817 226.368 132.349 226.368C131.917 226.368 131.527 226.476 131.179 226.692C130.843 226.908 130.675 227.172 130.675 227.484C130.675 227.988 131.149 228.348 132.097 228.564L133.429 228.906C135.181 229.338 136.057 230.22 136.057 231.552ZM139.552 222.138C139.552 222.462 139.438 222.738 139.21 222.966C138.982 223.194 138.706 223.308 138.382 223.308C138.058 223.308 137.782 223.194 137.554 222.966C137.326 222.738 137.212 222.462 137.212 222.138C137.212 221.814 137.326 221.538 137.554 221.31C137.782 221.082 138.058 220.968 138.382 220.968C138.706 220.968 138.982 221.082 139.21 221.31C139.438 221.538 139.552 221.814 139.552 222.138ZM139.21 225.18V234H137.554V225.18H139.21ZM145.238 232.776C146.054 232.776 146.72 232.482 147.236 231.894C147.776 231.306 148.046 230.538 148.046 229.59C148.046 228.666 147.776 227.904 147.236 227.304C146.708 226.704 146.042 226.404 145.238 226.404C144.446 226.404 143.78 226.704 143.24 227.304C142.7 227.904 142.43 228.666 142.43 229.59C142.43 230.526 142.7 231.288 143.24 231.876C143.78 232.476 144.446 232.776 145.238 232.776ZM145.184 238.176C144.692 238.176 144.23 238.11 143.798 237.978C143.366 237.858 142.97 237.684 142.61 237.456C142.262 237.228 141.962 236.958 141.71 236.646C141.458 236.334 141.266 235.986 141.134 235.602L142.7 234.954C142.88 235.47 143.192 235.884 143.636 236.196C144.08 236.508 144.596 236.664 145.184 236.664C146.084 236.664 146.786 236.394 147.29 235.854C147.794 235.314 148.046 234.57 148.046 233.622V232.776H147.974C147.662 233.244 147.236 233.616 146.696 233.892C146.168 234.156 145.592 234.288 144.968 234.288C143.816 234.288 142.826 233.838 141.998 232.938C141.182 232.014 140.774 230.898 140.774 229.59C140.774 228.282 141.182 227.172 141.998 226.26C142.826 225.348 143.816 224.892 144.968 224.892C145.592 224.892 146.168 225.03 146.696 225.306C147.236 225.57 147.662 225.936 147.974 226.404H148.046V225.18H149.63V233.622C149.63 235.038 149.228 236.148 148.424 236.952C147.608 237.768 146.528 238.176 145.184 238.176ZM151.649 225.18H153.233V226.404H153.305C153.557 225.972 153.941 225.612 154.457 225.324C154.985 225.036 155.531 224.892 156.095 224.892C157.175 224.892 158.003 225.204 158.579 225.828C159.167 226.44 159.461 227.316 159.461 228.456V234H157.805V228.564C157.769 227.124 157.043 226.404 155.627 226.404C154.967 226.404 154.415 226.674 153.971 227.214C153.527 227.742 153.305 228.378 153.305 229.122V234H151.649V225.18ZM166.566 231.3C166.566 231.732 166.746 232.092 167.106 232.38C167.478 232.668 167.91 232.812 168.402 232.812C169.098 232.812 169.716 232.554 170.256 232.038C170.808 231.522 171.084 230.916 171.084 230.22C170.568 229.812 169.848 229.608 168.924 229.608C168.252 229.608 167.688 229.77 167.232 230.094C166.788 230.418 166.566 230.82 166.566 231.3ZM168.708 224.892C169.932 224.892 170.898 225.222 171.606 225.882C172.314 226.53 172.668 227.424 172.668 228.564V234H171.084V232.776H171.012C170.328 233.784 169.416 234.288 168.276 234.288C167.304 234.288 166.488 234 165.828 233.424C165.18 232.848 164.856 232.128 164.856 231.264C164.856 230.352 165.198 229.626 165.882 229.086C166.578 228.546 167.502 228.276 168.654 228.276C169.638 228.276 170.448 228.456 171.084 228.816V228.438C171.084 227.862 170.856 227.376 170.4 226.98C169.944 226.572 169.41 226.368 168.798 226.368C167.874 226.368 167.142 226.758 166.602 227.538L165.144 226.62C165.948 225.468 167.136 224.892 168.708 224.892ZM174.535 225.18H176.119V226.404H176.191C176.443 225.972 176.827 225.612 177.343 225.324C177.871 225.036 178.417 224.892 178.981 224.892C180.061 224.892 180.889 225.204 181.465 225.828C182.053 226.44 182.347 227.316 182.347 228.456V234H180.691V228.564C180.655 227.124 179.929 226.404 178.513 226.404C177.853 226.404 177.301 226.674 176.857 227.214C176.413 227.742 176.191 228.378 176.191 229.122V234H174.535V225.18ZM188.251 232.776C189.067 232.776 189.733 232.482 190.249 231.894C190.789 231.306 191.059 230.538 191.059 229.59C191.059 228.666 190.789 227.904 190.249 227.304C189.721 226.704 189.055 226.404 188.251 226.404C187.459 226.404 186.793 226.704 186.253 227.304C185.713 227.904 185.443 228.666 185.443 229.59C185.443 230.526 185.713 231.288 186.253 231.876C186.793 232.476 187.459 232.776 188.251 232.776ZM187.981 234.288C186.829 234.288 185.839 233.832 185.011 232.92C184.195 231.996 183.787 230.886 183.787 229.59C183.787 228.294 184.195 227.184 185.011 226.26C185.839 225.348 186.829 224.892 187.981 224.892C188.629 224.892 189.217 225.03 189.745 225.306C190.285 225.582 190.699 225.948 190.987 226.404H191.059L190.987 225.18V221.112H192.643V234H191.059V232.776H190.987C190.699 233.232 190.285 233.598 189.745 233.874C189.217 234.15 188.629 234.288 187.981 234.288ZM198.905 234V221.112H202.847C204.815 221.112 206.393 221.706 207.581 222.894C208.781 224.082 209.381 225.636 209.381 227.556C209.381 229.488 208.781 231.048 207.581 232.236C206.393 233.412 204.815 234 202.847 234H198.905ZM200.561 222.696V232.416H202.847C204.347 232.416 205.529 231.99 206.393 231.138C207.257 230.274 207.689 229.08 207.689 227.556C207.689 226.044 207.257 224.856 206.393 223.992C205.529 223.128 204.347 222.696 202.847 222.696H200.561ZM214.759 234.288C213.463 234.288 212.395 233.844 211.555 232.956C210.715 232.068 210.295 230.946 210.295 229.59C210.295 228.246 210.703 227.13 211.519 226.242C212.335 225.342 213.379 224.892 214.651 224.892C215.959 224.892 216.997 225.318 217.765 226.17C218.545 227.01 218.935 228.192 218.935 229.716L218.917 229.896H211.987C212.011 230.76 212.299 231.456 212.851 231.984C213.403 232.512 214.063 232.776 214.831 232.776C215.887 232.776 216.715 232.248 217.315 231.192L218.791 231.912C218.395 232.656 217.843 233.238 217.135 233.658C216.439 234.078 215.647 234.288 214.759 234.288ZM212.113 228.528H217.171C217.123 227.916 216.871 227.412 216.415 227.016C215.971 226.608 215.371 226.404 214.615 226.404C213.991 226.404 213.451 226.596 212.995 226.98C212.551 227.364 212.257 227.88 212.113 228.528ZM224.558 234H222.902L219.338 225.18H221.138L223.73 232.02H223.766L226.394 225.18H228.158L224.558 234ZM232.935 234.288C231.639 234.288 230.571 233.844 229.731 232.956C228.891 232.068 228.471 230.946 228.471 229.59C228.471 228.246 228.879 227.13 229.695 226.242C230.511 225.342 231.555 224.892 232.827 224.892C234.135 224.892 235.173 225.318 235.941 226.17C236.721 227.01 237.111 228.192 237.111 229.716L237.093 229.896H230.163C230.187 230.76 230.475 231.456 231.027 231.984C231.579 232.512 232.239 232.776 233.007 232.776C234.063 232.776 234.891 232.248 235.491 231.192L236.967 231.912C236.571 232.656 236.019 233.238 235.311 233.658C234.615 234.078 233.823 234.288 232.935 234.288ZM230.289 228.528H235.347C235.299 227.916 235.047 227.412 234.591 227.016C234.147 226.608 233.547 226.404 232.791 226.404C232.167 226.404 231.627 226.596 231.171 226.98C230.727 227.364 230.433 227.88 230.289 228.528ZM240.281 221.112V234H238.625V221.112H240.281ZM241.707 229.59C241.707 228.234 242.133 227.112 242.985 226.224C243.849 225.336 244.935 224.892 246.243 224.892C247.551 224.892 248.631 225.336 249.483 226.224C250.347 227.112 250.779 228.234 250.779 229.59C250.779 230.958 250.347 232.08 249.483 232.956C248.631 233.844 247.551 234.288 246.243 234.288C244.935 234.288 243.849 233.844 242.985 232.956C242.133 232.068 241.707 230.946 241.707 229.59ZM243.363 229.59C243.363 230.538 243.639 231.306 244.191 231.894C244.743 232.482 245.427 232.776 246.243 232.776C247.059 232.776 247.743 232.482 248.295 231.894C248.847 231.306 249.123 230.538 249.123 229.59C249.123 228.654 248.847 227.892 248.295 227.304C247.731 226.704 247.047 226.404 246.243 226.404C245.439 226.404 244.755 226.704 244.191 227.304C243.639 227.892 243.363 228.654 243.363 229.59ZM256.516 232.776C257.308 232.776 257.974 232.476 258.514 231.876C259.054 231.288 259.324 230.526 259.324 229.59C259.324 228.666 259.054 227.904 258.514 227.304C257.974 226.704 257.308 226.404 256.516 226.404C255.712 226.404 255.04 226.704 254.5 227.304C253.972 227.904 253.708 228.666 253.708 229.59C253.708 230.526 253.972 231.294 254.5 231.894C255.04 232.482 255.712 232.776 256.516 232.776ZM256.786 234.288C256.138 234.288 255.544 234.15 255.004 233.874C254.476 233.598 254.068 233.232 253.78 232.776H253.708L253.78 234V237.888H252.124V225.18H253.708V226.404H253.78C254.068 225.948 254.476 225.582 255.004 225.306C255.544 225.03 256.138 224.892 256.786 224.892C257.95 224.892 258.934 225.348 259.738 226.26C260.566 227.184 260.98 228.294 260.98 229.59C260.98 230.898 260.566 232.008 259.738 232.92C258.934 233.832 257.95 234.288 256.786 234.288ZM264.064 234H262.408V225.18H263.992V226.404H264.064C264.316 225.972 264.7 225.612 265.216 225.324C265.744 225.036 266.266 224.892 266.782 224.892C267.43 224.892 268 225.042 268.492 225.342C268.984 225.642 269.344 226.056 269.572 226.584C270.304 225.456 271.318 224.892 272.614 224.892C273.634 224.892 274.42 225.204 274.972 225.828C275.524 226.452 275.8 227.34 275.8 228.492V234H274.144V228.744C274.144 227.916 273.994 227.322 273.694 226.962C273.394 226.59 272.89 226.404 272.182 226.404C271.546 226.404 271.012 226.674 270.58 227.214C270.148 227.754 269.932 228.39 269.932 229.122V234H268.276V228.744C268.276 227.916 268.126 227.322 267.826 226.962C267.526 226.59 267.022 226.404 266.314 226.404C265.678 226.404 265.144 226.674 264.712 227.214C264.28 227.754 264.064 228.39 264.064 229.122V234ZM281.697 234.288C280.401 234.288 279.333 233.844 278.493 232.956C277.653 232.068 277.233 230.946 277.233 229.59C277.233 228.246 277.641 227.13 278.457 226.242C279.273 225.342 280.317 224.892 281.589 224.892C282.897 224.892 283.935 225.318 284.703 226.17C285.483 227.01 285.873 228.192 285.873 229.716L285.855 229.896H278.925C278.949 230.76 279.237 231.456 279.789 231.984C280.341 232.512 281.001 232.776 281.769 232.776C282.825 232.776 283.653 232.248 284.253 231.192L285.729 231.912C285.333 232.656 284.781 233.238 284.073 233.658C283.377 234.078 282.585 234.288 281.697 234.288ZM279.051 228.528H284.109C284.061 227.916 283.809 227.412 283.353 227.016C282.909 226.608 282.309 226.404 281.553 226.404C280.929 226.404 280.389 226.596 279.933 226.98C279.489 227.364 279.195 227.88 279.051 228.528ZM287.387 225.18H288.971V226.404H289.043C289.295 225.972 289.679 225.612 290.195 225.324C290.723 225.036 291.269 224.892 291.833 224.892C292.913 224.892 293.741 225.204 294.317 225.828C294.905 226.44 295.199 227.316 295.199 228.456V234H293.543V228.564C293.507 227.124 292.781 226.404 291.365 226.404C290.705 226.404 290.153 226.674 289.709 227.214C289.265 227.742 289.043 228.378 289.043 229.122V234H287.387V225.18ZM300.178 234.144C299.458 234.144 298.858 233.922 298.378 233.478C297.91 233.034 297.67 232.416 297.658 231.624V226.692H296.11V225.18H297.658V222.48H299.314V225.18H301.474V226.692H299.314V231.084C299.314 231.672 299.428 232.074 299.656 232.29C299.884 232.494 300.142 232.596 300.43 232.596C300.562 232.596 300.688 232.584 300.808 232.56C300.94 232.524 301.06 232.482 301.168 232.434L301.69 233.91C301.258 234.066 300.754 234.144 300.178 234.144Z" fill="white"/>
</g>
<g filter="url(#filter1_d_359_565)">
<rect x="37" y="342" width="284" height="50" rx="25" fill="white"/>
<path d="M57.952 367.78V373H56.296V360.112H60.688C61.804 360.112 62.752 360.484 63.532 361.228C64.324 361.972 64.72 362.878 64.72 363.946C64.72 365.038 64.324 365.95 63.532 366.682C62.764 367.414 61.816 367.78 60.688 367.78H57.952ZM57.952 361.696V366.196H60.724C61.384 366.196 61.93 365.974 62.362 365.53C62.806 365.086 63.028 364.558 63.028 363.946C63.028 363.346 62.806 362.824 62.362 362.38C61.93 361.924 61.384 361.696 60.724 361.696H57.952ZM67.8242 373H66.1682V364.18H67.7522V365.62H67.8242C67.9922 365.152 68.3342 364.756 68.8502 364.432C69.3782 364.096 69.8942 363.928 70.3982 363.928C70.8782 363.928 71.2862 364 71.6222 364.144L71.1182 365.746C70.9142 365.662 70.5902 365.62 70.1462 365.62C69.5222 365.62 68.9762 365.872 68.5082 366.376C68.0522 366.88 67.8242 367.468 67.8242 368.14V373ZM71.6583 368.59C71.6583 367.234 72.0843 366.112 72.9363 365.224C73.8003 364.336 74.8863 363.892 76.1943 363.892C77.5023 363.892 78.5823 364.336 79.4343 365.224C80.2983 366.112 80.7303 367.234 80.7303 368.59C80.7303 369.958 80.2983 371.08 79.4343 371.956C78.5823 372.844 77.5023 373.288 76.1943 373.288C74.8863 373.288 73.8003 372.844 72.9363 371.956C72.0843 371.068 71.6583 369.946 71.6583 368.59ZM73.3143 368.59C73.3143 369.538 73.5903 370.306 74.1423 370.894C74.6943 371.482 75.3783 371.776 76.1943 371.776C77.0103 371.776 77.6943 371.482 78.2463 370.894C78.7983 370.306 79.0743 369.538 79.0743 368.59C79.0743 367.654 78.7983 366.892 78.2463 366.304C77.6823 365.704 76.9983 365.404 76.1943 365.404C75.3903 365.404 74.7063 365.704 74.1423 366.304C73.5903 366.892 73.3143 367.654 73.3143 368.59ZM84.2887 361.138C84.2887 361.462 84.1747 361.738 83.9467 361.966C83.7187 362.194 83.4427 362.308 83.1187 362.308C82.7947 362.308 82.5187 362.194 82.2907 361.966C82.0627 361.738 81.9487 361.462 81.9487 361.138C81.9487 360.814 82.0627 360.538 82.2907 360.31C82.5187 360.082 82.7947 359.968 83.1187 359.968C83.4427 359.968 83.7187 360.082 83.9467 360.31C84.1747 360.538 84.2887 360.814 84.2887 361.138ZM81.3007 377.068C80.9407 377.068 80.6167 377.008 80.3287 376.888L80.7607 375.448C80.9527 375.52 81.1147 375.556 81.2467 375.556C81.9187 375.556 82.2667 375.142 82.2907 374.314V364.18H83.9467V374.062C83.9467 376.066 83.0647 377.068 81.3007 377.068ZM89.9739 373.288C88.6779 373.288 87.6099 372.844 86.7699 371.956C85.9299 371.068 85.5099 369.946 85.5099 368.59C85.5099 367.246 85.9179 366.13 86.7339 365.242C87.5499 364.342 88.5939 363.892 89.8659 363.892C91.1739 363.892 92.2119 364.318 92.9799 365.17C93.7599 366.01 94.1499 367.192 94.1499 368.716L94.1319 368.896H87.2019C87.2259 369.76 87.5139 370.456 88.0659 370.984C88.6179 371.512 89.2779 371.776 90.0459 371.776C91.1019 371.776 91.9299 371.248 92.5299 370.192L94.0059 370.912C93.6099 371.656 93.0579 372.238 92.3499 372.658C91.6539 373.078 90.8619 373.288 89.9739 373.288ZM87.3279 367.528H92.3859C92.3379 366.916 92.0859 366.412 91.6299 366.016C91.1859 365.608 90.5859 365.404 89.8299 365.404C89.2059 365.404 88.6659 365.596 88.2099 365.98C87.7659 366.364 87.4719 366.88 87.3279 367.528ZM99.7841 373.288C98.4761 373.288 97.3901 372.844 96.5261 371.956C95.6741 371.044 95.2481 369.922 95.2481 368.59C95.2481 367.234 95.6741 366.112 96.5261 365.224C97.3901 364.336 98.4761 363.892 99.7841 363.892C100.684 363.892 101.47 364.12 102.142 364.576C102.814 365.02 103.318 365.638 103.654 366.43L102.142 367.06C101.674 365.956 100.852 365.404 99.6761 365.404C98.9201 365.404 98.2661 365.71 97.7141 366.322C97.1741 366.934 96.9041 367.69 96.9041 368.59C96.9041 369.49 97.1741 370.246 97.7141 370.858C98.2661 371.47 98.9201 371.776 99.6761 371.776C100.888 371.776 101.74 371.224 102.232 370.12L103.708 370.75C103.384 371.542 102.874 372.166 102.178 372.622C101.494 373.066 100.696 373.288 99.7841 373.288ZM108.561 373.144C107.841 373.144 107.241 372.922 106.761 372.478C106.293 372.034 106.053 371.416 106.041 370.624V365.692H104.493V364.18H106.041V361.48H107.697V364.18H109.857V365.692H107.697V370.084C107.697 370.672 107.811 371.074 108.039 371.29C108.267 371.494 108.525 371.596 108.813 371.596C108.945 371.596 109.071 371.584 109.191 371.56C109.323 371.524 109.443 371.482 109.551 371.434L110.073 372.91C109.641 373.066 109.137 373.144 108.561 373.144ZM115.675 373V360.112H119.617C121.585 360.112 123.163 360.706 124.351 361.894C125.551 363.082 126.151 364.636 126.151 366.556C126.151 368.488 125.551 370.048 124.351 371.236C123.163 372.412 121.585 373 119.617 373H115.675ZM117.331 361.696V371.416H119.617C121.117 371.416 122.299 370.99 123.163 370.138C124.027 369.274 124.459 368.08 124.459 366.556C124.459 365.044 124.027 363.856 123.163 362.992C122.299 362.128 121.117 361.696 119.617 361.696H117.331ZM131.529 373.288C130.233 373.288 129.165 372.844 128.325 371.956C127.485 371.068 127.065 369.946 127.065 368.59C127.065 367.246 127.473 366.13 128.289 365.242C129.105 364.342 130.149 363.892 131.421 363.892C132.729 363.892 133.767 364.318 134.535 365.17C135.315 366.01 135.705 367.192 135.705 368.716L135.687 368.896H128.757C128.781 369.76 129.069 370.456 129.621 370.984C130.173 371.512 130.833 371.776 131.601 371.776C132.657 371.776 133.485 371.248 134.085 370.192L135.561 370.912C135.165 371.656 134.613 372.238 133.905 372.658C133.209 373.078 132.417 373.288 131.529 373.288ZM128.883 367.528H133.941C133.893 366.916 133.641 366.412 133.185 366.016C132.741 365.608 132.141 365.404 131.385 365.404C130.761 365.404 130.221 365.596 129.765 365.98C129.321 366.364 129.027 366.88 128.883 367.528ZM141.539 371.776C142.331 371.776 142.997 371.476 143.537 370.876C144.077 370.288 144.347 369.526 144.347 368.59C144.347 367.666 144.077 366.904 143.537 366.304C142.997 365.704 142.331 365.404 141.539 365.404C140.735 365.404 140.063 365.704 139.523 366.304C138.995 366.904 138.731 367.666 138.731 368.59C138.731 369.526 138.995 370.294 139.523 370.894C140.063 371.482 140.735 371.776 141.539 371.776ZM141.809 373.288C141.161 373.288 140.567 373.15 140.027 372.874C139.499 372.598 139.091 372.232 138.803 371.776H138.731L138.803 373V376.888H137.147V364.18H138.731V365.404H138.803C139.091 364.948 139.499 364.582 140.027 364.306C140.567 364.03 141.161 363.892 141.809 363.892C142.973 363.892 143.957 364.348 144.761 365.26C145.589 366.184 146.003 367.294 146.003 368.59C146.003 369.898 145.589 371.008 144.761 371.92C143.957 372.832 142.973 373.288 141.809 373.288ZM149 360.112V373H147.344V360.112H149ZM150.426 368.59C150.426 367.234 150.852 366.112 151.704 365.224C152.568 364.336 153.654 363.892 154.962 363.892C156.27 363.892 157.35 364.336 158.202 365.224C159.066 366.112 159.498 367.234 159.498 368.59C159.498 369.958 159.066 371.08 158.202 371.956C157.35 372.844 156.27 373.288 154.962 373.288C153.654 373.288 152.568 372.844 151.704 371.956C150.852 371.068 150.426 369.946 150.426 368.59ZM152.082 368.59C152.082 369.538 152.358 370.306 152.91 370.894C153.462 371.482 154.146 371.776 154.962 371.776C155.778 371.776 156.462 371.482 157.014 370.894C157.566 370.306 157.842 369.538 157.842 368.59C157.842 367.654 157.566 366.892 157.014 366.304C156.45 365.704 155.766 365.404 154.962 365.404C154.158 365.404 153.474 365.704 152.91 366.304C152.358 366.892 152.082 367.654 152.082 368.59ZM168.535 364.18L163.009 376.888H161.299L163.351 372.442L159.715 364.18H161.515L164.143 370.516H164.179L166.735 364.18H168.535ZM171.271 373H169.615V364.18H171.199V365.404H171.271C171.523 364.972 171.907 364.612 172.423 364.324C172.951 364.036 173.473 363.892 173.989 363.892C174.637 363.892 175.207 364.042 175.699 364.342C176.191 364.642 176.551 365.056 176.779 365.584C177.511 364.456 178.525 363.892 179.821 363.892C180.841 363.892 181.627 364.204 182.179 364.828C182.731 365.452 183.007 366.34 183.007 367.492V373H181.351V367.744C181.351 366.916 181.201 366.322 180.901 365.962C180.601 365.59 180.097 365.404 179.389 365.404C178.753 365.404 178.219 365.674 177.787 366.214C177.355 366.754 177.139 367.39 177.139 368.122V373H175.483V367.744C175.483 366.916 175.333 366.322 175.033 365.962C174.733 365.59 174.229 365.404 173.521 365.404C172.885 365.404 172.351 365.674 171.919 366.214C171.487 366.754 171.271 367.39 171.271 368.122V373ZM188.904 373.288C187.608 373.288 186.54 372.844 185.7 371.956C184.86 371.068 184.44 369.946 184.44 368.59C184.44 367.246 184.848 366.13 185.664 365.242C186.48 364.342 187.524 363.892 188.796 363.892C190.104 363.892 191.142 364.318 191.91 365.17C192.69 366.01 193.08 367.192 193.08 368.716L193.062 368.896H186.132C186.156 369.76 186.444 370.456 186.996 370.984C187.548 371.512 188.208 371.776 188.976 371.776C190.032 371.776 190.86 371.248 191.46 370.192L192.936 370.912C192.54 371.656 191.988 372.238 191.28 372.658C190.584 373.078 189.792 373.288 188.904 373.288ZM186.258 367.528H191.316C191.268 366.916 191.016 366.412 190.56 366.016C190.116 365.608 189.516 365.404 188.76 365.404C188.136 365.404 187.596 365.596 187.14 365.98C186.696 366.364 186.402 366.88 186.258 367.528ZM194.594 364.18H196.178V365.404H196.25C196.502 364.972 196.886 364.612 197.402 364.324C197.93 364.036 198.476 363.892 199.04 363.892C200.12 363.892 200.948 364.204 201.524 364.828C202.112 365.44 202.406 366.316 202.406 367.456V373H200.75V367.564C200.714 366.124 199.988 365.404 198.572 365.404C197.912 365.404 197.36 365.674 196.916 366.214C196.472 366.742 196.25 367.378 196.25 368.122V373H194.594V364.18ZM207.385 373.144C206.665 373.144 206.065 372.922 205.585 372.478C205.117 372.034 204.877 371.416 204.865 370.624V365.692H203.317V364.18H204.865V361.48H206.521V364.18H208.681V365.692H206.521V370.084C206.521 370.672 206.635 371.074 206.863 371.29C207.091 371.494 207.349 371.596 207.637 371.596C207.769 371.596 207.895 371.584 208.015 371.56C208.147 371.524 208.267 371.482 208.375 371.434L208.897 372.91C208.465 373.066 207.961 373.144 207.385 373.144ZM215.417 370.3C215.417 370.732 215.597 371.092 215.957 371.38C216.329 371.668 216.761 371.812 217.253 371.812C217.949 371.812 218.567 371.554 219.107 371.038C219.659 370.522 219.935 369.916 219.935 369.22C219.419 368.812 218.699 368.608 217.775 368.608C217.103 368.608 216.539 368.77 216.083 369.094C215.639 369.418 215.417 369.82 215.417 370.3ZM217.559 363.892C218.783 363.892 219.749 364.222 220.457 364.882C221.165 365.53 221.519 366.424 221.519 367.564V373H219.935V371.776H219.863C219.179 372.784 218.267 373.288 217.127 373.288C216.155 373.288 215.339 373 214.679 372.424C214.031 371.848 213.707 371.128 213.707 370.264C213.707 369.352 214.049 368.626 214.733 368.086C215.429 367.546 216.353 367.276 217.505 367.276C218.489 367.276 219.299 367.456 219.935 367.816V367.438C219.935 366.862 219.707 366.376 219.251 365.98C218.795 365.572 218.261 365.368 217.649 365.368C216.725 365.368 215.993 365.758 215.453 366.538L213.995 365.62C214.799 364.468 215.987 363.892 217.559 363.892ZM223.387 364.18H224.971V365.404H225.043C225.295 364.972 225.679 364.612 226.195 364.324C226.723 364.036 227.269 363.892 227.833 363.892C228.913 363.892 229.741 364.204 230.317 364.828C230.905 365.44 231.199 366.316 231.199 367.456V373H229.543V367.564C229.507 366.124 228.781 365.404 227.365 365.404C226.705 365.404 226.153 365.674 225.709 366.214C225.265 366.742 225.043 367.378 225.043 368.122V373H223.387V364.18ZM237.103 371.776C237.919 371.776 238.585 371.482 239.101 370.894C239.641 370.306 239.911 369.538 239.911 368.59C239.911 367.666 239.641 366.904 239.101 366.304C238.573 365.704 237.907 365.404 237.103 365.404C236.311 365.404 235.645 365.704 235.105 366.304C234.565 366.904 234.295 367.666 234.295 368.59C234.295 369.526 234.565 370.288 235.105 370.876C235.645 371.476 236.311 371.776 237.103 371.776ZM236.833 373.288C235.681 373.288 234.691 372.832 233.863 371.92C233.047 370.996 232.639 369.886 232.639 368.59C232.639 367.294 233.047 366.184 233.863 365.26C234.691 364.348 235.681 363.892 236.833 363.892C237.481 363.892 238.069 364.03 238.597 364.306C239.137 364.582 239.551 364.948 239.839 365.404H239.911L239.839 364.18V360.112H241.495V373H239.911V371.776H239.839C239.551 372.232 239.137 372.598 238.597 372.874C238.069 373.15 237.481 373.288 236.833 373.288ZM251.428 361.696V373H249.772V361.696H246.172V360.112H255.028V361.696H251.428ZM258.988 373.288C257.692 373.288 256.624 372.844 255.784 371.956C254.944 371.068 254.524 369.946 254.524 368.59C254.524 367.246 254.932 366.13 255.748 365.242C256.564 364.342 257.608 363.892 258.88 363.892C260.188 363.892 261.226 364.318 261.994 365.17C262.774 366.01 263.164 367.192 263.164 368.716L263.146 368.896H256.216C256.24 369.76 256.528 370.456 257.08 370.984C257.632 371.512 258.292 371.776 259.06 371.776C260.116 371.776 260.944 371.248 261.544 370.192L263.02 370.912C262.624 371.656 262.072 372.238 261.364 372.658C260.668 373.078 259.876 373.288 258.988 373.288ZM256.342 367.528H261.4C261.352 366.916 261.1 366.412 260.644 366.016C260.2 365.608 259.6 365.404 258.844 365.404C258.22 365.404 257.68 365.596 257.224 365.98C256.78 366.364 256.486 366.88 256.342 367.528ZM271.516 370.552C271.516 371.32 271.18 371.968 270.508 372.496C269.836 373.024 268.99 373.288 267.97 373.288C267.082 373.288 266.302 373.06 265.63 372.604C264.958 372.136 264.478 371.524 264.19 370.768L265.666 370.138C265.882 370.666 266.194 371.08 266.602 371.38C267.022 371.668 267.478 371.812 267.97 371.812C268.498 371.812 268.936 371.698 269.284 371.47C269.644 371.242 269.824 370.972 269.824 370.66C269.824 370.096 269.392 369.682 268.528 369.418L267.016 369.04C265.3 368.608 264.442 367.78 264.442 366.556C264.442 365.752 264.766 365.11 265.414 364.63C266.074 364.138 266.914 363.892 267.934 363.892C268.714 363.892 269.416 364.078 270.04 364.45C270.676 364.822 271.12 365.32 271.372 365.944L269.896 366.556C269.728 366.184 269.452 365.896 269.068 365.692C268.696 365.476 268.276 365.368 267.808 365.368C267.376 365.368 266.986 365.476 266.638 365.692C266.302 365.908 266.134 366.172 266.134 366.484C266.134 366.988 266.608 367.348 267.556 367.564L268.888 367.906C270.64 368.338 271.516 369.22 271.516 370.552ZM276.361 373.144C275.641 373.144 275.041 372.922 274.561 372.478C274.093 372.034 273.853 371.416 273.841 370.624V365.692H272.293V364.18H273.841V361.48H275.497V364.18H277.657V365.692H275.497V370.084C275.497 370.672 275.611 371.074 275.839 371.29C276.067 371.494 276.325 371.596 276.613 371.596C276.745 371.596 276.871 371.584 276.991 371.56C277.123 371.524 277.243 371.482 277.351 371.434L277.873 372.91C277.441 373.066 276.937 373.144 276.361 373.144ZM281.463 361.138C281.463 361.462 281.349 361.738 281.121 361.966C280.893 362.194 280.617 362.308 280.293 362.308C279.969 362.308 279.693 362.194 279.465 361.966C279.237 361.738 279.123 361.462 279.123 361.138C279.123 360.814 279.237 360.538 279.465 360.31C279.693 360.082 279.969 359.968 280.293 359.968C280.617 359.968 280.893 360.082 281.121 360.31C281.349 360.538 281.463 360.814 281.463 361.138ZM281.121 364.18V373H279.465V364.18H281.121ZM283.276 364.18H284.86V365.404H284.932C285.184 364.972 285.568 364.612 286.084 364.324C286.612 364.036 287.158 363.892 287.722 363.892C288.802 363.892 289.63 364.204 290.206 364.828C290.794 365.44 291.088 366.316 291.088 367.456V373H289.432V367.564C289.396 366.124 288.67 365.404 287.254 365.404C286.594 365.404 286.042 365.674 285.598 366.214C285.154 366.742 284.932 367.378 284.932 368.122V373H283.276V364.18ZM296.904 371.776C297.72 371.776 298.386 371.482 298.902 370.894C299.442 370.306 299.712 369.538 299.712 368.59C299.712 367.666 299.442 366.904 298.902 366.304C298.374 365.704 297.708 365.404 296.904 365.404C296.112 365.404 295.446 365.704 294.906 366.304C294.366 366.904 294.096 367.666 294.096 368.59C294.096 369.526 294.366 370.288 294.906 370.876C295.446 371.476 296.112 371.776 296.904 371.776ZM296.85 377.176C296.358 377.176 295.896 377.11 295.464 376.978C295.032 376.858 294.636 376.684 294.276 376.456C293.928 376.228 293.628 375.958 293.376 375.646C293.124 375.334 292.932 374.986 292.8 374.602L294.366 373.954C294.546 374.47 294.858 374.884 295.302 375.196C295.746 375.508 296.262 375.664 296.85 375.664C297.75 375.664 298.452 375.394 298.956 374.854C299.46 374.314 299.712 373.57 299.712 372.622V371.776H299.64C299.328 372.244 298.902 372.616 298.362 372.892C297.834 373.156 297.258 373.288 296.634 373.288C295.482 373.288 294.492 372.838 293.664 371.938C292.848 371.014 292.44 369.898 292.44 368.59C292.44 367.282 292.848 366.172 293.664 365.26C294.492 364.348 295.482 363.892 296.634 363.892C297.258 363.892 297.834 364.03 298.362 364.306C298.902 364.57 299.328 364.936 299.64 365.404H299.712V364.18H301.296V372.622C301.296 374.038 300.894 375.148 300.09 375.952C299.274 376.768 298.194 377.176 296.85 377.176Z" fill="#FBBC04"/>
</g>
<g filter="url(#filter2_d_359_565)">
<rect x="10" y="479" width="311" height="50" rx="25" fill="white"/>
<path d="M30.952 504.78V510H29.296V497.112H33.688C34.804 497.112 35.752 497.484 36.532 498.228C37.324 498.972 37.72 499.878 37.72 500.946C37.72 502.038 37.324 502.95 36.532 503.682C35.764 504.414 34.816 504.78 33.688 504.78H30.952ZM30.952 498.696V503.196H33.724C34.384 503.196 34.93 502.974 35.362 502.53C35.806 502.086 36.028 501.558 36.028 500.946C36.028 500.346 35.806 499.824 35.362 499.38C34.93 498.924 34.384 498.696 33.724 498.696H30.952ZM40.8242 510H39.1682V501.18H40.7522V502.62H40.8242C40.9922 502.152 41.3342 501.756 41.8502 501.432C42.3782 501.096 42.8942 500.928 43.3982 500.928C43.8782 500.928 44.2862 501 44.6222 501.144L44.1182 502.746C43.9142 502.662 43.5902 502.62 43.1462 502.62C42.5222 502.62 41.9762 502.872 41.5082 503.376C41.0522 503.88 40.8242 504.468 40.8242 505.14V510ZM44.6583 505.59C44.6583 504.234 45.0843 503.112 45.9363 502.224C46.8003 501.336 47.8863 500.892 49.1943 500.892C50.5023 500.892 51.5823 501.336 52.4343 502.224C53.2983 503.112 53.7303 504.234 53.7303 505.59C53.7303 506.958 53.2983 508.08 52.4343 508.956C51.5823 509.844 50.5023 510.288 49.1943 510.288C47.8863 510.288 46.8003 509.844 45.9363 508.956C45.0843 508.068 44.6583 506.946 44.6583 505.59ZM46.3143 505.59C46.3143 506.538 46.5903 507.306 47.1423 507.894C47.6943 508.482 48.3783 508.776 49.1943 508.776C50.0103 508.776 50.6943 508.482 51.2463 507.894C51.7983 507.306 52.0743 506.538 52.0743 505.59C52.0743 504.654 51.7983 503.892 51.2463 503.304C50.6823 502.704 49.9983 502.404 49.1943 502.404C48.3903 502.404 47.7063 502.704 47.1423 503.304C46.5903 503.892 46.3143 504.654 46.3143 505.59ZM57.2887 498.138C57.2887 498.462 57.1747 498.738 56.9467 498.966C56.7187 499.194 56.4427 499.308 56.1187 499.308C55.7947 499.308 55.5187 499.194 55.2907 498.966C55.0627 498.738 54.9487 498.462 54.9487 498.138C54.9487 497.814 55.0627 497.538 55.2907 497.31C55.5187 497.082 55.7947 496.968 56.1187 496.968C56.4427 496.968 56.7187 497.082 56.9467 497.31C57.1747 497.538 57.2887 497.814 57.2887 498.138ZM54.3007 514.068C53.9407 514.068 53.6167 514.008 53.3287 513.888L53.7607 512.448C53.9527 512.52 54.1147 512.556 54.2467 512.556C54.9187 512.556 55.2667 512.142 55.2907 511.314V501.18H56.9467V511.062C56.9467 513.066 56.0647 514.068 54.3007 514.068ZM62.9739 510.288C61.6779 510.288 60.6099 509.844 59.7699 508.956C58.9299 508.068 58.5099 506.946 58.5099 505.59C58.5099 504.246 58.9179 503.13 59.7339 502.242C60.5499 501.342 61.5939 500.892 62.8659 500.892C64.1739 500.892 65.2119 501.318 65.9799 502.17C66.7599 503.01 67.1499 504.192 67.1499 505.716L67.1319 505.896H60.2019C60.2259 506.76 60.5139 507.456 61.0659 507.984C61.6179 508.512 62.2779 508.776 63.0459 508.776C64.1019 508.776 64.9299 508.248 65.5299 507.192L67.0059 507.912C66.6099 508.656 66.0579 509.238 65.3499 509.658C64.6539 510.078 63.8619 510.288 62.9739 510.288ZM60.3279 504.528H65.3859C65.3379 503.916 65.0859 503.412 64.6299 503.016C64.1859 502.608 63.5859 502.404 62.8299 502.404C62.2059 502.404 61.6659 502.596 61.2099 502.98C60.7659 503.364 60.4719 503.88 60.3279 504.528ZM72.7841 510.288C71.4761 510.288 70.3901 509.844 69.5261 508.956C68.6741 508.044 68.2481 506.922 68.2481 505.59C68.2481 504.234 68.6741 503.112 69.5261 502.224C70.3901 501.336 71.4761 500.892 72.7841 500.892C73.6841 500.892 74.4701 501.12 75.1421 501.576C75.8141 502.02 76.3181 502.638 76.6541 503.43L75.1421 504.06C74.6741 502.956 73.8521 502.404 72.6761 502.404C71.9201 502.404 71.2661 502.71 70.7141 503.322C70.1741 503.934 69.9041 504.69 69.9041 505.59C69.9041 506.49 70.1741 507.246 70.7141 507.858C71.2661 508.47 71.9201 508.776 72.6761 508.776C73.8881 508.776 74.7401 508.224 75.2321 507.12L76.7081 507.75C76.3841 508.542 75.8741 509.166 75.1781 509.622C74.4941 510.066 73.6961 510.288 72.7841 510.288ZM81.5605 510.144C80.8405 510.144 80.2405 509.922 79.7605 509.478C79.2925 509.034 79.0525 508.416 79.0405 507.624V502.692H77.4925V501.18H79.0405V498.48H80.6965V501.18H82.8565V502.692H80.6965V507.084C80.6965 507.672 80.8105 508.074 81.0385 508.29C81.2665 508.494 81.5245 508.596 81.8125 508.596C81.9445 508.596 82.0705 508.584 82.1905 508.56C82.3225 508.524 82.4425 508.482 82.5505 508.434L83.0725 509.91C82.6405 510.066 82.1365 510.144 81.5605 510.144ZM90.3309 504.78V510H88.6749V497.112H93.0669C94.1829 497.112 95.1309 497.484 95.9109 498.228C96.7029 498.972 97.0989 499.878 97.0989 500.946C97.0989 502.038 96.7029 502.95 95.9109 503.682C95.1429 504.414 94.1949 504.78 93.0669 504.78H90.3309ZM90.3309 498.696V503.196H93.1029C93.7629 503.196 94.3089 502.974 94.7409 502.53C95.1849 502.086 95.4069 501.558 95.4069 500.946C95.4069 500.346 95.1849 499.824 94.7409 499.38C94.3089 498.924 93.7629 498.696 93.1029 498.696H90.3309ZM100.203 510H98.5471V501.18H100.131V502.62H100.203C100.371 502.152 100.713 501.756 101.229 501.432C101.757 501.096 102.273 500.928 102.777 500.928C103.257 500.928 103.665 501 104.001 501.144L103.497 502.746C103.293 502.662 102.969 502.62 102.525 502.62C101.901 502.62 101.355 502.872 100.887 503.376C100.431 503.88 100.203 504.468 100.203 505.14V510ZM108.501 510.288C107.205 510.288 106.137 509.844 105.297 508.956C104.457 508.068 104.037 506.946 104.037 505.59C104.037 504.246 104.445 503.13 105.261 502.242C106.077 501.342 107.121 500.892 108.393 500.892C109.701 500.892 110.739 501.318 111.507 502.17C112.287 503.01 112.677 504.192 112.677 505.716L112.659 505.896H105.729C105.753 506.76 106.041 507.456 106.593 507.984C107.145 508.512 107.805 508.776 108.573 508.776C109.629 508.776 110.457 508.248 111.057 507.192L112.533 507.912C112.137 508.656 111.585 509.238 110.877 509.658C110.181 510.078 109.389 510.288 108.501 510.288ZM105.855 504.528H110.913C110.865 503.916 110.613 503.412 110.157 503.016C109.713 502.608 109.113 502.404 108.357 502.404C107.733 502.404 107.193 502.596 106.737 502.98C106.293 503.364 105.999 503.88 105.855 504.528ZM121.029 507.552C121.029 508.32 120.693 508.968 120.021 509.496C119.349 510.024 118.503 510.288 117.483 510.288C116.595 510.288 115.815 510.06 115.143 509.604C114.471 509.136 113.991 508.524 113.703 507.768L115.179 507.138C115.395 507.666 115.707 508.08 116.115 508.38C116.535 508.668 116.991 508.812 117.483 508.812C118.011 508.812 118.449 508.698 118.797 508.47C119.157 508.242 119.337 507.972 119.337 507.66C119.337 507.096 118.905 506.682 118.041 506.418L116.529 506.04C114.813 505.608 113.955 504.78 113.955 503.556C113.955 502.752 114.279 502.11 114.927 501.63C115.587 501.138 116.427 500.892 117.447 500.892C118.227 500.892 118.929 501.078 119.553 501.45C120.189 501.822 120.633 502.32 120.885 502.944L119.409 503.556C119.241 503.184 118.965 502.896 118.581 502.692C118.209 502.476 117.789 502.368 117.321 502.368C116.889 502.368 116.499 502.476 116.151 502.692C115.815 502.908 115.647 503.172 115.647 503.484C115.647 503.988 116.121 504.348 117.069 504.564L118.401 504.906C120.153 505.338 121.029 506.22 121.029 507.552ZM126.519 510.288C125.223 510.288 124.155 509.844 123.315 508.956C122.475 508.068 122.055 506.946 122.055 505.59C122.055 504.246 122.463 503.13 123.279 502.242C124.095 501.342 125.139 500.892 126.411 500.892C127.719 500.892 128.757 501.318 129.525 502.17C130.305 503.01 130.695 504.192 130.695 505.716L130.677 505.896H123.747C123.771 506.76 124.059 507.456 124.611 507.984C125.163 508.512 125.823 508.776 126.591 508.776C127.647 508.776 128.475 508.248 129.075 507.192L130.551 507.912C130.155 508.656 129.603 509.238 128.895 509.658C128.199 510.078 127.407 510.288 126.519 510.288ZM123.873 504.528H128.931C128.883 503.916 128.631 503.412 128.175 503.016C127.731 502.608 127.131 502.404 126.375 502.404C125.751 502.404 125.211 502.596 124.755 502.98C124.311 503.364 124.017 503.88 123.873 504.528ZM132.209 501.18H133.793V502.404H133.865C134.117 501.972 134.501 501.612 135.017 501.324C135.545 501.036 136.091 500.892 136.655 500.892C137.735 500.892 138.563 501.204 139.139 501.828C139.727 502.44 140.021 503.316 140.021 504.456V510H138.365V504.564C138.329 503.124 137.603 502.404 136.187 502.404C135.527 502.404 134.975 502.674 134.531 503.214C134.087 503.742 133.865 504.378 133.865 505.122V510H132.209V501.18ZM145 510.144C144.28 510.144 143.68 509.922 143.2 509.478C142.732 509.034 142.492 508.416 142.48 507.624V502.692H140.932V501.18H142.48V498.48H144.136V501.18H146.296V502.692H144.136V507.084C144.136 507.672 144.25 508.074 144.478 508.29C144.706 508.494 144.964 508.596 145.252 508.596C145.384 508.596 145.51 508.584 145.63 508.56C145.762 508.524 145.882 508.482 145.99 508.434L146.512 509.91C146.08 510.066 145.576 510.144 145 510.144ZM148.902 507.3C148.902 507.732 149.082 508.092 149.442 508.38C149.814 508.668 150.246 508.812 150.738 508.812C151.434 508.812 152.052 508.554 152.592 508.038C153.144 507.522 153.42 506.916 153.42 506.22C152.904 505.812 152.184 505.608 151.26 505.608C150.588 505.608 150.024 505.77 149.568 506.094C149.124 506.418 148.902 506.82 148.902 507.3ZM151.044 500.892C152.268 500.892 153.234 501.222 153.942 501.882C154.65 502.53 155.004 503.424 155.004 504.564V510H153.42V508.776H153.348C152.664 509.784 151.752 510.288 150.612 510.288C149.64 510.288 148.824 510 148.164 509.424C147.516 508.848 147.192 508.128 147.192 507.264C147.192 506.352 147.534 505.626 148.218 505.086C148.914 504.546 149.838 504.276 150.99 504.276C151.974 504.276 152.784 504.456 153.42 504.816V504.438C153.42 503.862 153.192 503.376 152.736 502.98C152.28 502.572 151.746 502.368 151.134 502.368C150.21 502.368 149.478 502.758 148.938 503.538L147.48 502.62C148.284 501.468 149.472 500.892 151.044 500.892ZM160.188 510.144C159.468 510.144 158.868 509.922 158.388 509.478C157.92 509.034 157.68 508.416 157.668 507.624V502.692H156.12V501.18H157.668V498.48H159.324V501.18H161.484V502.692H159.324V507.084C159.324 507.672 159.438 508.074 159.666 508.29C159.894 508.494 160.152 508.596 160.439 508.596C160.572 508.596 160.698 508.584 160.818 508.56C160.95 508.524 161.07 508.482 161.178 508.434L161.7 509.91C161.268 510.066 160.764 510.144 160.188 510.144ZM165.289 498.138C165.289 498.462 165.175 498.738 164.947 498.966C164.719 499.194 164.443 499.308 164.119 499.308C163.795 499.308 163.519 499.194 163.291 498.966C163.063 498.738 162.949 498.462 162.949 498.138C162.949 497.814 163.063 497.538 163.291 497.31C163.519 497.082 163.795 496.968 164.119 496.968C164.443 496.968 164.719 497.082 164.947 497.31C165.175 497.538 165.289 497.814 165.289 498.138ZM164.947 501.18V510H163.291V501.18H164.947ZM166.51 505.59C166.51 504.234 166.936 503.112 167.788 502.224C168.652 501.336 169.738 500.892 171.046 500.892C172.354 500.892 173.434 501.336 174.286 502.224C175.15 503.112 175.582 504.234 175.582 505.59C175.582 506.958 175.15 508.08 174.286 508.956C173.434 509.844 172.354 510.288 171.046 510.288C169.738 510.288 168.652 509.844 167.788 508.956C166.936 508.068 166.51 506.946 166.51 505.59ZM168.166 505.59C168.166 506.538 168.442 507.306 168.994 507.894C169.546 508.482 170.23 508.776 171.046 508.776C171.862 508.776 172.546 508.482 173.098 507.894C173.65 507.306 173.926 506.538 173.926 505.59C173.926 504.654 173.65 503.892 173.098 503.304C172.534 502.704 171.85 502.404 171.046 502.404C170.242 502.404 169.558 502.704 168.994 503.304C168.442 503.892 168.166 504.654 168.166 505.59ZM176.91 501.18H178.494V502.404H178.566C178.818 501.972 179.202 501.612 179.718 501.324C180.246 501.036 180.792 500.892 181.356 500.892C182.436 500.892 183.264 501.204 183.84 501.828C184.428 502.44 184.722 503.316 184.722 504.456V510H183.066V504.564C183.03 503.124 182.304 502.404 180.888 502.404C180.228 502.404 179.676 502.674 179.232 503.214C178.788 503.742 178.566 504.378 178.566 505.122V510H176.91V501.18ZM191.827 507.3C191.827 507.732 192.007 508.092 192.367 508.38C192.739 508.668 193.171 508.812 193.663 508.812C194.359 508.812 194.977 508.554 195.517 508.038C196.069 507.522 196.345 506.916 196.345 506.22C195.829 505.812 195.109 505.608 194.185 505.608C193.513 505.608 192.949 505.77 192.493 506.094C192.049 506.418 191.827 506.82 191.827 507.3ZM193.969 500.892C195.193 500.892 196.159 501.222 196.867 501.882C197.575 502.53 197.929 503.424 197.929 504.564V510H196.345V508.776H196.273C195.589 509.784 194.677 510.288 193.537 510.288C192.565 510.288 191.749 510 191.089 509.424C190.441 508.848 190.117 508.128 190.117 507.264C190.117 506.352 190.459 505.626 191.143 505.086C191.839 504.546 192.763 504.276 193.915 504.276C194.899 504.276 195.709 504.456 196.345 504.816V504.438C196.345 503.862 196.117 503.376 195.661 502.98C195.205 502.572 194.671 502.368 194.059 502.368C193.135 502.368 192.403 502.758 191.863 503.538L190.405 502.62C191.209 501.468 192.397 500.892 193.969 500.892ZM199.797 501.18H201.381V502.404H201.453C201.705 501.972 202.089 501.612 202.605 501.324C203.133 501.036 203.679 500.892 204.243 500.892C205.323 500.892 206.151 501.204 206.727 501.828C207.315 502.44 207.609 503.316 207.609 504.456V510H205.953V504.564C205.917 503.124 205.191 502.404 203.775 502.404C203.115 502.404 202.563 502.674 202.119 503.214C201.675 503.742 201.453 504.378 201.453 505.122V510H199.797V501.18ZM213.513 508.776C214.329 508.776 214.995 508.482 215.511 507.894C216.051 507.306 216.321 506.538 216.321 505.59C216.321 504.666 216.051 503.904 215.511 503.304C214.983 502.704 214.317 502.404 213.513 502.404C212.721 502.404 212.055 502.704 211.515 503.304C210.975 503.904 210.705 504.666 210.705 505.59C210.705 506.526 210.975 507.288 211.515 507.876C212.055 508.476 212.721 508.776 213.513 508.776ZM213.243 510.288C212.091 510.288 211.101 509.832 210.273 508.92C209.457 507.996 209.049 506.886 209.049 505.59C209.049 504.294 209.457 503.184 210.273 502.26C211.101 501.348 212.091 500.892 213.243 500.892C213.891 500.892 214.479 501.03 215.007 501.306C215.547 501.582 215.961 501.948 216.249 502.404H216.321L216.249 501.18V497.112H217.905V510H216.321V508.776H216.249C215.961 509.232 215.547 509.598 215.007 509.874C214.479 510.15 213.891 510.288 213.243 510.288ZM231.691 497.112V498.696H225.823V502.782H231.115V504.33H225.823V508.416H231.691V510H224.167V497.112H231.691ZM237.567 510H235.911L232.347 501.18H234.147L236.739 508.02H236.775L239.403 501.18H241.167L237.567 510ZM243.278 507.3C243.278 507.732 243.458 508.092 243.818 508.38C244.19 508.668 244.622 508.812 245.114 508.812C245.81 508.812 246.428 508.554 246.968 508.038C247.52 507.522 247.796 506.916 247.796 506.22C247.28 505.812 246.56 505.608 245.636 505.608C244.964 505.608 244.4 505.77 243.944 506.094C243.5 506.418 243.278 506.82 243.278 507.3ZM245.42 500.892C246.644 500.892 247.61 501.222 248.318 501.882C249.026 502.53 249.38 503.424 249.38 504.564V510H247.796V508.776H247.724C247.04 509.784 246.128 510.288 244.988 510.288C244.016 510.288 243.2 510 242.54 509.424C241.892 508.848 241.568 508.128 241.568 507.264C241.568 506.352 241.91 505.626 242.594 505.086C243.29 504.546 244.214 504.276 245.366 504.276C246.35 504.276 247.16 504.456 247.796 504.816V504.438C247.796 503.862 247.568 503.376 247.112 502.98C246.656 502.572 246.122 502.368 245.51 502.368C244.586 502.368 243.854 502.758 243.314 503.538L241.856 502.62C242.66 501.468 243.848 500.892 245.42 500.892ZM252.904 497.112V510H251.248V497.112H252.904ZM262.662 510H261.078V508.776H261.006C260.754 509.208 260.364 509.568 259.836 509.856C259.32 510.144 258.78 510.288 258.216 510.288C257.136 510.288 256.302 509.982 255.714 509.37C255.138 508.746 254.85 507.864 254.85 506.724V501.18H256.506V506.616C256.542 508.056 257.268 508.776 258.684 508.776C259.344 508.776 259.896 508.512 260.34 507.984C260.784 507.444 261.006 506.802 261.006 506.058V501.18H262.662V510ZM265.796 507.3C265.796 507.732 265.976 508.092 266.336 508.38C266.708 508.668 267.14 508.812 267.632 508.812C268.328 508.812 268.946 508.554 269.486 508.038C270.038 507.522 270.314 506.916 270.314 506.22C269.798 505.812 269.078 505.608 268.154 505.608C267.482 505.608 266.918 505.77 266.462 506.094C266.018 506.418 265.796 506.82 265.796 507.3ZM267.938 500.892C269.162 500.892 270.128 501.222 270.836 501.882C271.544 502.53 271.898 503.424 271.898 504.564V510H270.314V508.776H270.242C269.558 509.784 268.646 510.288 267.506 510.288C266.534 510.288 265.718 510 265.058 509.424C264.41 508.848 264.086 508.128 264.086 507.264C264.086 506.352 264.428 505.626 265.112 505.086C265.808 504.546 266.732 504.276 267.884 504.276C268.868 504.276 269.678 504.456 270.314 504.816V504.438C270.314 503.862 270.086 503.376 269.63 502.98C269.174 502.572 268.64 502.368 268.028 502.368C267.104 502.368 266.372 502.758 265.832 503.538L264.374 502.62C265.178 501.468 266.366 500.892 267.938 500.892ZM277.082 510.144C276.362 510.144 275.762 509.922 275.282 509.478C274.814 509.034 274.574 508.416 274.562 507.624V502.692H273.014V501.18H274.562V498.48H276.218V501.18H278.378V502.692H276.218V507.084C276.218 507.672 276.332 508.074 276.56 508.29C276.788 508.494 277.046 508.596 277.334 508.596C277.466 508.596 277.592 508.584 277.712 508.56C277.844 508.524 277.964 508.482 278.072 508.434L278.594 509.91C278.162 510.066 277.658 510.144 277.082 510.144ZM282.183 498.138C282.183 498.462 282.069 498.738 281.841 498.966C281.613 499.194 281.337 499.308 281.013 499.308C280.689 499.308 280.413 499.194 280.185 498.966C279.957 498.738 279.843 498.462 279.843 498.138C279.843 497.814 279.957 497.538 280.185 497.31C280.413 497.082 280.689 496.968 281.013 496.968C281.337 496.968 281.613 497.082 281.841 497.31C282.069 497.538 282.183 497.814 282.183 498.138ZM281.841 501.18V510H280.185V501.18H281.841ZM283.404 505.59C283.404 504.234 283.83 503.112 284.682 502.224C285.546 501.336 286.632 500.892 287.94 500.892C289.248 500.892 290.328 501.336 291.18 502.224C292.044 503.112 292.476 504.234 292.476 505.59C292.476 506.958 292.044 508.08 291.18 508.956C290.328 509.844 289.248 510.288 287.94 510.288C286.632 510.288 285.546 509.844 284.682 508.956C283.83 508.068 283.404 506.946 283.404 505.59ZM285.06 505.59C285.06 506.538 285.336 507.306 285.888 507.894C286.44 508.482 287.124 508.776 287.94 508.776C288.756 508.776 289.44 508.482 289.992 507.894C290.544 507.306 290.82 506.538 290.82 505.59C290.82 504.654 290.544 503.892 289.992 503.304C289.428 502.704 288.744 502.404 287.94 502.404C287.136 502.404 286.452 502.704 285.888 503.304C285.336 503.892 285.06 504.654 285.06 505.59ZM293.805 501.18H295.389V502.404H295.461C295.713 501.972 296.097 501.612 296.613 501.324C297.141 501.036 297.687 500.892 298.251 500.892C299.331 500.892 300.159 501.204 300.735 501.828C301.323 502.44 301.617 503.316 301.617 504.456V510H299.961V504.564C299.925 503.124 299.199 502.404 297.783 502.404C297.123 502.404 296.571 502.674 296.127 503.214C295.683 503.742 295.461 504.378 295.461 505.122V510H293.805V501.18Z" fill="#FBBC04"/>
</g>
<line x1="348" y1="31" x2="348" y2="71" stroke="#FBBC04" stroke-width="6"/>
<circle cx="348" cy="16" r="13" fill="#FBBC04" stroke="#FBBC04" stroke-width="6"/>
<line x1="348" y1="105" x2="348" y2="139" stroke="#FBBC04" stroke-width="6" stroke-linecap="round"/>
<circle cx="348" cy="87" r="13" fill="#FBBC04" stroke="#FBBC04" stroke-width="6"/>
<line x1="348" y1="174" x2="348" y2="208" stroke="#FBBC04" stroke-width="6" stroke-linecap="round"/>
<circle cx="348" cy="156" r="13" fill="#FBBC04" stroke="#FBBC04" stroke-width="6"/>
<line x1="348" y1="243" x2="348" y2="347" stroke="#FBBC04" stroke-width="6" stroke-linecap="round" stroke-dasharray="15 15"/>
<circle cx="348" cy="225" r="13" fill="#FBBC04" stroke="#FBBC04" stroke-width="6"/>
<line x1="348" y1="382" x2="348" y2="486" stroke="#FBBC04" stroke-width="6" stroke-linecap="round" stroke-dasharray="15 15"/>
<circle cx="348" cy="364" r="13" stroke="#FBBC04" stroke-width="6"/>
<circle cx="348" cy="501" r="13" stroke="#FBBC04" stroke-width="6"/>
<defs>
<filter id="filter0_d_359_565" x="19" y="193" width="312" height="70" filterUnits="userSpaceOnUse" color-interpolation-filters="sRGB">
<feFlood flood-opacity="0" result="BackgroundImageFix"/>
<feColorMatrix in="SourceAlpha" type="matrix" values="0 0 0 0 0 0 0 0 0 0 0 0 0 0 0 0 0 0 127 0" result="hardAlpha"/>
<feOffset/>
<feGaussianBlur stdDeviation="5"/>
<feComposite in2="hardAlpha" operator="out"/>
<feColorMatrix type="matrix" values="0 0 0 0 0 0 0 0 0 0 0 0 0 0 0 0 0 0 0.1 0"/>
<feBlend mode="normal" in2="BackgroundImageFix" result="effect1_dropShadow_359_565"/>
<feBlend mode="normal" in="SourceGraphic" in2="effect1_dropShadow_359_565" result="shape"/>
</filter>
<filter id="filter1_d_359_565" x="27" y="332" width="304" height="70" filterUnits="userSpaceOnUse" color-interpolation-filters="sRGB">
<feFlood flood-opacity="0" result="BackgroundImageFix"/>
<feColorMatrix in="SourceAlpha" type="matrix" values="0 0 0 0 0 0 0 0 0 0 0 0 0 0 0 0 0 0 127 0" result="hardAlpha"/>
<feOffset/>
<feGaussianBlur stdDeviation="5"/>
<feComposite in2="hardAlpha" operator="out"/>
<feColorMatrix type="matrix" values="0 0 0 0 0 0 0 0 0 0 0 0 0 0 0 0 0 0 0.1 0"/>
<feBlend mode="normal" in2="BackgroundImageFix" result="effect1_dropShadow_359_565"/>
<feBlend mode="normal" in="SourceGraphic" in2="effect1_dropShadow_359_565" result="shape"/>
</filter>
<filter id="filter2_d_359_565" x="0" y="469" width="331" height="70" filterUnits="userSpaceOnUse" color-interpolation-filters="sRGB">
<feFlood flood-opacity="0" result="BackgroundImageFix"/>
<feColorMatrix in="SourceAlpha" type="matrix" values="0 0 0 0 0 0 0 0 0 0 0 0 0 0 0 0 0 0 127 0" result="hardAlpha"/>
<feOffset/>
<feGaussianBlur stdDeviation="5"/>
<feComposite in2="hardAlpha" operator="out"/>
<feColorMatrix type="matrix" values="0 0 0 0 0 0 0 0 0 0 0 0 0 0 0 0 0 0 0.1 0"/>
<feBlend mode="normal" in2="BackgroundImageFix" result="effect1_dropShadow_359_565"/>
<feBlend mode="normal" in="SourceGraphic" in2="effect1_dropShadow_359_565" result="shape"/>
</filter>
</defs>
</svg>
