<svg width="48" height="48" viewBox="0 0 48 48" fill="none" xmlns="http://www.w3.org/2000/svg">
<circle cx="24" cy="24" r="24" fill="#FCBE38"/>
<path fill-rule="evenodd" clip-rule="evenodd" d="M24 46C11.8691 46 2 36.1309 2 24C2 11.8691 11.8691 2 24 2C36.1309 2 46 11.8691 46 24C46 36.1309 36.1309 46 24 46ZM35.4089 31.7284C35.6801 31.7284 35.9009 31.5078 35.9009 31.2365V17.4248L24.7075 26.3135C24.5004 26.4781 24.2501 26.5603 23.9999 26.5603C23.7497 26.5603 23.4995 26.478 23.2923 26.3135L12.099 17.4248V31.2365C12.099 31.5078 12.3198 31.7284 12.591 31.7284H35.4089ZM33.6936 16.2716L24 23.9694L14.3063 16.2716H33.6936ZM38.1768 16.7635V31.2366C38.1768 32.7628 36.9351 34.0045 35.4089 34.0045H12.591C11.0648 34.0045 9.82323 32.7628 9.82323 31.2366V16.7635C9.82323 15.2374 11.0649 13.9958 12.591 13.9958H35.4089C36.9351 13.9957 38.1768 15.2374 38.1768 16.7635Z" fill="white"/>
</svg>
