<svg width="136" height="136" viewBox="0 0 136 136" fill="none" xmlns="http://www.w3.org/2000/svg">
<path d="M60.8266 71.4586C60.8266 76.8989 56.929 81.3257 52.0285 81.3257C47.2048 81.3257 43.2305 76.8989 43.2305 71.4586C43.2305 66.021 47.1281 61.5916 52.0285 61.5916C56.966 61.5916 60.9033 66.0607 60.8266 71.4586Z" fill="white"/>
<path d="M93.3539 71.4586C93.3539 76.8989 89.496 81.3257 84.5559 81.3257C79.7321 81.3257 75.7578 76.8989 75.7578 71.4586C75.7578 66.021 79.6554 61.5916 84.5559 61.5916C89.496 61.5916 93.4306 66.0607 93.3539 71.4586Z" fill="white"/>
<path d="M68.2618 0C30.8522 0 0.523438 30.3288 0.523438 67.7383C0.523438 105.148 30.8522 135.477 68.2618 135.477C105.671 135.477 136 105.148 136 67.7383C136 30.3288 105.671 0 68.2618 0ZM116.66 92.6771C108.288 98.8265 100.176 102.56 92.1766 105.034C92.0496 105.074 91.912 105.026 91.8326 104.918C89.9856 102.346 88.3081 99.6335 86.8369 96.7864C86.7522 96.6197 86.8289 96.4186 87.0036 96.3525C89.6681 95.3443 92.203 94.1404 94.6427 92.7168C94.8358 92.603 94.8464 92.3279 94.6691 92.1956C94.1531 91.8119 93.6398 91.407 93.1503 91.0022C93.0577 90.9281 92.9333 90.9122 92.8301 90.9625C76.9963 98.2788 59.6516 98.2788 43.6299 90.9625C43.5267 90.9175 43.4023 90.9334 43.315 91.0075C42.8255 91.4097 42.3122 91.8119 41.7988 92.1956C41.6215 92.3279 41.6348 92.603 41.8279 92.7168C44.2676 94.1139 46.8025 95.3443 49.4644 96.3551C49.639 96.4213 49.721 96.6197 49.6337 96.7864C48.1969 99.6388 46.5167 102.348 44.6354 104.92C44.5533 105.026 44.4184 105.074 44.2914 105.034C36.3295 102.56 28.2194 98.8265 19.8447 92.6771C19.7759 92.6216 19.7257 92.5369 19.7177 92.4469C18.0137 74.1814 21.4906 55.6883 34.1809 36.7269C34.2127 36.6766 34.2576 36.6369 34.3132 36.6157C40.5552 33.7474 47.247 31.6386 54.2378 30.4346C54.3648 30.4161 54.4918 30.4743 54.558 30.5854C55.4232 32.1175 56.4102 34.0782 57.0796 35.6817C64.4488 34.5571 71.9344 34.5571 79.4597 35.6817C80.1265 34.1126 81.0791 32.1175 81.9391 30.5854C82.0052 30.469 82.1322 30.4108 82.2592 30.4346C89.2553 31.6412 95.9471 33.7527 102.186 36.6157C102.242 36.6369 102.287 36.6766 102.313 36.7322C113.369 52.992 118.83 71.3343 116.787 92.4522C116.779 92.5422 116.734 92.6216 116.66 92.6771Z" fill="white"/>
</svg>
